<?xml version="1.0" standalone="yes"?>
<svg xmlns="http://www.w3.org/2000/svg" width="500" height="500">
<path style="fill:#020203; stroke:none;" d="M0 0L0 500L500 500L500 0L0 0z"/>
<path style="fill:#f8f7f7; stroke:none;" d="M249 32L250 33L249 32z"/>
<path style="fill:#f01012; stroke:none;" d="M250 32.6412C233.442 37.0958 217.347 46.8189 202 54.2161C154.684 77.0221 113.236 106.036 74.9961 141.911C63.037 153.131 51.4984 164.611 40.7184 177C36.2029 182.19 29.8751 187.672 26.9884 194C24.6681 199.087 26.4559 205.706 27.0502 211C28.589 224.706 31.4387 238.295 32.831 252C38.4222 307.035 60.0383 365.891 92.1412 411C100.246 422.388 108.222 440.523 120.039 448.397C124.486 451.361 131.848 451.412 137 452.731C152.866 456.796 168.839 458.879 185 461.13C232.699 467.777 278.351 466.003 326 460.285C345.291 457.971 366.417 455.777 384.961 449.606C393.03 446.92 398.88 433.712 403.333 427C418.369 404.335 432.78 380.865 443.861 356C460.819 317.95 471.026 280.437 475.169 239C476.513 225.556 480.302 207.221 476.49 194C472.909 181.581 457.595 167.708 449.271 158C420.141 124.027 385.396 95.0484 346 73.6913C324.368 61.9645 302.246 52.202 280 41.7801C272.494 38.2636 258.32 30.4029 250 32.6412z"/>
<path style="fill:#f8f7f7; stroke:none;" d="M256 32L257 33L256 32z"/>
<path style="fill:#d4ce4c; stroke:none;" d="M247 33L248 34L247 33M258 33L259 34L258 33M244.667 34.3333L245.333 34.6667L244.667 34.3333M261 34L262 35L261 34M242.667 35.3333L243.333 35.6667L242.667 35.3333M263.667 35.3333L264.333 35.6667L263.667 35.3333M240 36L241 37L240 36M266.667 36.3333L267.333 36.6667L266.667 36.3333M237.667 37.3333L238.333 37.6667L237.667 37.3333M269 37L270 38L269 37M235 38L236 39L235 38z"/>
<path style="fill:#0403c6; stroke:none;" d="M253 38.8434C238.242 39.5266 219.138 52.5137 206 58.892C157.385 82.493 112.302 112.698 74 151C63.5735 161.426 53.2191 171.837 43.5764 183C39.9389 187.211 34.6619 191.641 32.7423 197C30.8785 202.203 33.294 209.629 33.831 215C35.3699 230.39 37.1257 245.848 40.3387 261C51.0997 311.744 65.7771 357.727 93.6813 402C101.674 414.681 111.057 433.328 123.171 442.436C132.272 449.279 151.918 449.903 163 451.753C198.73 457.72 234.701 461.55 271 459.961C298.673 458.749 326.796 455.207 354 449.8C362.677 448.076 376.265 448.141 383.675 443.062C388.462 439.782 391.969 432.749 395.164 428C402.65 416.871 409.768 405.535 416.603 394C443.522 348.575 461.465 301.454 468.282 249C469.889 236.635 470.495 224.427 471.039 212C471.255 207.08 472.999 201.836 471.272 197C466.945 184.88 453.547 172.652 445.271 163C417.758 130.913 385.695 103.628 349 82.5787C326.787 69.8369 303.792 58.1252 280 48.6003C272.194 45.4755 261.571 38.4465 253 38.8434z"/>
<path style="fill:#d4ce4c; stroke:none;" d="M272 38L273 39L272 38M233 39L234 40L233 39M274 39L275 40L274 39M230 40L231 41L230 40M277 40L278 41L277 40M228 41L229 42L228 41M279 41L280 42L279 41M226 42L227 43L226 42M281 42L282 43L281 42M223.667 43.3333L224.333 43.6667L223.667 43.3333M283.667 43.3333L284.333 43.6667L283.667 43.3333M221 44L222 45L221 44M285 44L285 45L288 45L285 44M219 45L220 46L219 45M288 45L289 46L288 45M217.667 46.3333L218.333 46.6667L217.667 46.3333M290 46L291 47L290 46M215 47L216 48L215 47M293 47L294 48L293 47M295 48L296 49L295 48M297 49L298 50L297 49M299 50L300 51L299 50M207 51L208 52L207 51M302 51L303 52L302 51M204.667 52.3333L205.333 52.6667L204.667 52.3333M304 52L305 53L304 52M202.667 53.3333L203.333 53.6667L202.667 53.3333M306 53L307 54L306 53M200.667 54.3333L201.333 54.6667L200.667 54.3333M308 54L309 55L308 54M198.667 55.3333L199.333 55.6667L198.667 55.3333M310 55L311 56L310 55M196 56L197 57L196 56M313 56L314 57L313 56M315 57L316 58L315 57M193 58L194 59L193 58M317 58L318 59L317 58M191 59L192 60L191 59M319 59L320 60L319 59M189 60L190 61L189 60z"/>
<path style="fill:#f8f7f7; stroke:none;" d="M321 60L322 61L321 60z"/>
<path style="fill:#d4ce4c; stroke:none;" d="M187 61L188 62L187 61M323 61L324 62L323 61M185 62L186 63L185 62M325 62L326 63L325 62M183 63L184 64L183 63M326.667 63.3333L327.333 63.6667L326.667 63.3333M181 64L182 65L181 64M328.667 64.3333L329.333 64.6667L328.667 64.3333M179 65L180 66L179 65M331 65L332 66L331 65M176 67L177 68L176 67M334 67L335 68L334 67M174 68L175 69L174 68z"/>
<path style="fill:#f8f7f7; stroke:none;" d="M336 68L337 69L336 68z"/>
<path style="fill:#d4ce4c; stroke:none;" d="M172 69L173 70L172 69M338 69L339 70L338 69M170 70L171 71L170 70M340 70L341 71L340 70M168.667 71.3333L169.333 71.6667L168.667 71.3333M342 71L343 72L342 71M166.667 72.3333L167.333 72.6667L166.667 72.3333M343.667 72.3333L344.333 72.6667L343.667 72.3333M165 73L166 74L165 73M345.667 73.3333L346.333 73.6667L345.667 73.3333M163 74L164 75L163 74M347 74L348 75L347 74M349 75L350 76L349 75M351 76L352 77L351 76M158 77L159 78L158 77M157 78L158 79L157 78M354 78L355 79L354 78M155 79L156 80L155 79M153 80L154 81L153 80M151.667 81.3333L152.333 81.6667L151.667 81.3333M359 81L360 82L359 81M150 82L151 83L150 82M361 82L362 83L361 82M148 83L149 84L148 83M362 83L363 84L362 83M146 84L147 85L146 84M364 84L365 85L364 84M145 85L146 86L145 85M366 85L367 86L366 85M143 86L144 87L143 86M235 86L236 107L247 106L247 103L240 103L239 86L235 86M255.044 86.7423C243.464 91.4325 250.371 111.362 262.956 106.258C274.388 101.621 267.677 81.6255 255.044 86.7423M367 86L368 87L367 86M369 87L370 88L369 87z"/>
<path style="fill:#f8f7f7; stroke:none;" d="M140 88L141 89L140 88z"/>
<path style="fill:#d4ce4c; stroke:none;" d="M219.001 88.5486C206.335 91.2441 209.866 111.942 222.996 108.901C234.465 106.245 231.187 85.9552 219.001 88.5486M370 88L371 89L370 88M139 89L140 90L139 89M290 99L281 99L281 101L285 106C272.57 104.075 278.851 89.9012 291 96C291.433 84.7151 273.933 88.8599 273.11 99C272.57 105.639 280.675 114.104 287.411 108.972C290.045 106.966 289.873 101.958 290 99M137.667 90.3333L138.333 90.6667L137.667 90.3333z"/>
<path style="fill:#0403c6; stroke:none;" d="M256.434 91.0324C251.283 94.4543 255.081 106.276 261.566 101.968C266.718 98.5456 262.919 86.7241 256.434 91.0324z"/>
<path style="fill:#d4ce4c; stroke:none;" d="M373 90L374 91L373 90M136 91L137 92L136 91M134.667 92.3333L135.333 92.6667L134.667 92.3333z"/>
<path style="fill:#0403c6; stroke:none;" d="M218.282 93.0471C213.153 96.0709 216.584 108.006 222.853 104.914C228.821 101.97 224.703 89.261 218.282 93.0471z"/>
<path style="fill:#d4ce4c; stroke:none;" d="M376 92L377 93L376 92M133 93L134 94L133 93M199 93L202 105C197.443 100.447 193.91 95.5791 187 97L193 117C197.732 113.547 194.105 107.777 193 103C197.652 107.648 201.969 113.999 209 111C207.103 105.171 205.911 94.1963 199 93M298 93L293 113C299.376 111.896 305.419 95.4702 298 93M131 94L132 95L131 94M379 94L380 95L379 94M130 95L131 96L130 95M380 95L381 96L380 95M128 96L129 97L128 96M382 96L383 97L382 96M127 97L128 98L127 97M383 97L384 98L383 97M126 98L127 99L126 98M385 98L386 99L385 98M124 99L125 100L124 99M386 99L387 100L386 99M123 100L124 101L123 100M180 100L176 112L175 112C173.786 107.963 172.499 105.329 168 106L176 124L180 123L177 115C181.703 117.221 184.806 120.151 190 118L190 117C180.053 110.911 183.669 108.995 180 100M317 100C315.729 103.053 314.195 105.973 312.862 109C309.905 115.716 313.214 126.68 322.721 120.817C332.69 114.669 326.334 101.665 317 100M387.667 100.333L388.333 100.667L387.667 100.333M389 101L390 102L389 101M390 102L391 103L390 102M119 103L120 104L119 103z"/>
<path style="fill:#0403c6; stroke:none;" d="M320 104L318 109C323.145 109.866 324.572 106.825 320 104z"/>
<path style="fill:#d4ce4c; stroke:none;" d="M393 104L394 105L393 104z"/>
<path style="fill:#0403c6; stroke:none;" d="M202 105L203 106L202 105z"/>
<path style="fill:#d4ce4c; stroke:none;" d="M394 105L395 106L394 105M115 106L116 107L115 106M114 107L115 108L114 107M112.667 108.333L113.333 108.667L112.667 108.333M398 108L399 109L398 108M111 109L112 110L111 109M336 109C334.309 112.049 332.316 114.926 330.671 118C329.679 119.851 328.655 121.841 328.684 123.999C328.962 144.462 358.618 120.244 346 116C344.927 118.268 333.772 133.77 333.737 123.941C333.72 119.197 338.893 114.711 340 110L336 109M399 109L400 110L399 109M110 110L111 111L110 110M172 128L171 124L164 128L162 123L166 117L159 120L163 110C151.539 112.693 151.35 128.608 163.093 131.172C166.044 131.816 169.45 129.183 172 128M109 111L110 112L109 111M107 112L108 113L107 112z"/>
<path style="fill:#0403c6; stroke:none;" d="M316 112C314.516 120.822 324.614 115.172 316 112z"/>
<path style="fill:#d4ce4c; stroke:none;" d="M106 113L107 114L106 113M105 114L106 115L105 114M104 115L105 116L104 115M102 116L103 117L102 116M101 117L102 118L101 117M100 118L101 119L100 118M409.667 118.333L410.333 118.667L409.667 118.333M99 119L100 120L99 119M136 127L137 131L141 128L142 128L152 141L153 141C155.423 134.941 149.63 129.544 145 126L145 125L149 123L148 119L136 127M411 119L412 120L411 119M98 120L99 121L98 120z"/>
<path style="fill:#020203; stroke:none;" d="M221 124L227 151L193 164L180 141C165.367 147.313 153.68 159.66 144.015 172C141.658 175.009 135.241 181.62 136.447 185.816C137.975 191.134 150.214 196.248 155 198L141 232L117 227C114.187 247.892 110.29 269.42 118 290L141 285C142.094 297.529 149.836 307.94 155 319L135 330C138.307 344.418 153.759 357.373 165 365.87C168.3 368.365 174.388 374.583 178.895 373.978C186.658 372.934 186.627 355.759 195.043 355.569C204.339 355.36 216.146 364.55 226 366L221 393C241.263 396.93 264.095 399.457 284 392C282.522 386.751 276.333 372.338 279.121 367.43C280.757 364.55 286.128 363.948 289 362.999C296.755 360.437 304.027 357.264 311 353C313.278 357.816 319.705 372.927 325.185 374.172C329.526 375.158 335.889 369.17 339 366.714C349.42 358.487 366.266 343.594 369 330L351.022 317.79L353.22 310L364.303 286.118L387 290C391.421 268.569 391.052 248.507 387 227L364.278 230.799L359.305 221L348 199L369 187C366.187 172.453 350.13 159.373 339 150.884C335.797 148.441 329.614 142.038 325.185 142.881C319.623 143.94 313.083 159.172 311 164L278 152L284 125C265.536 115.962 240.323 120.4 221 124z"/>
<path style="fill:#d4ce4c; stroke:none;" d="M412 120L413 121L412 120M413 121L414 122L413 121M414 122L415 123L414 122M344 137C345.488 139.063 346.894 140.871 349.019 142.352C350.792 143.588 352.826 144.535 355 144.742C373.188 146.474 364.049 114.063 351.754 128.02C349.136 130.992 346.684 134.085 344 137M415 123L416 124L415 123M93 124L94 125L93 124M416 124L417 125L416 124M92 125L93 126L92 125M417 125L418 126L417 125M418 126L419 127L418 126M419 127L420 128L419 127z"/>
<path style="fill:#0403c6; stroke:none;" d="M357 128L350 139C358.802 143.157 366.449 132.766 357 128z"/>
<path style="fill:#d4ce4c; stroke:none;" d="M421 128L422 129L421 128M422 129L423 130L422 129M423 130L424 131L423 130M424 131L425 132L424 131M425 132L426 133L425 132M426 133L427 134L426 133M82 134L83 135L82 134M427 134L428 135L427 134M428 135L429 136L428 135M80 136L81 137L80 136M429 136L430 137L429 136M79 137L80 138L79 137M126 137L116 149L117 150C124.565 147.613 128.575 153.261 134 158L135 158C137.374 151.794 129.646 147.26 125 144L125 143C127.215 140.78 127.778 139.662 126 137M430 137L431 138L430 137M78 138L79 139L78 138M360 153C366.967 153.984 372.471 145.529 377 141C371.186 135.685 362.371 147.917 360 153M431 138L432 139L431 138M77 139L78 140L77 139M432 139L433 140L432 139M76 140L77 141L76 140M433 140L434 141L433 140M75 141L76 142L75 141M434 141L435 142L434 141M74 142L75 143L74 142M435 142L436 143L435 142M73 143L74 144L73 143M436 143L437 144L436 143M72 144L73 145L72 144M437 144L438 145L437 144M70 145L71 146L70 145M438 145L439 146L438 145M69 146L70 147L69 146M68 147L69 148L68 147M439 147L440 148L439 147M67 148L68 149L67 148M440 148L441 149L440 148M66 149L67 150L66 149M441 149L442 150L441 149M65 150L66 151L65 150M442 150L443 151L442 150M64 151L65 152L64 151M443 151L444 152L443 151M63 152L64 153L63 152M444 152L445 153L444 152M62 153L63 154L62 153M111 153L110 157C112.093 158.292 127.641 171.149 116.98 169.954C112.449 169.447 108.436 164.471 104 163C101.555 179.551 135.485 175.85 123.566 161.174C122.291 159.603 120.615 158.352 118.996 157.16C116.449 155.284 113.993 153.955 111 153M397 167L395 163L394 163C392.057 164.497 379.207 174.977 379.207 166.977C379.207 162.715 386.967 159.063 390 157C382.808 144.8 362.92 178.052 384 174.703C385.825 174.413 387.44 173.545 389 172.601C391.776 170.922 394.364 168.888 397 167M445 153L446 154L445 153M61 154L62 155L61 154M446 154L447 155L446 154M60 155L61 156L60 155M447 155L448 156L447 155M59 156L60 157L59 156M58 157L59 158L58 157M448 157L449 158L448 157M57 158L58 159L57 158M449 158L450 159L449 158M56 159L57 160L56 159M450 159L451 160L450 159M55 160L56 161L55 160z"/>
<path style="fill:#0403c6; stroke:none;" d="M238 160L238 161L241 161L238 160z"/>
<path style="fill:#d4ce4c; stroke:none;" d="M241 160.428C222.814 163.032 206.219 168.517 191 179.025C180.678 186.153 171.542 195.487 164.695 206C117.35 278.701 184.982 368.322 267 356.572C282.032 354.418 296.201 349.093 309 340.946C319.204 334.45 328.498 325.832 335.572 316C376.652 258.902 344.489 179.603 277 163.13C265.469 160.315 252.836 158.734 241 160.428z"/>
<path style="fill:#0403c6; stroke:none;" d="M262 160L262 161L265 161L262 160z"/>
<path style="fill:#d4ce4c; stroke:none;" d="M451 160L452 161L451 160z"/>
<path style="fill:#0403c6; stroke:none;" d="M233.667 161.333L234.333 161.667L233.667 161.333M269.667 161.333L270.333 161.667L269.667 161.333z"/>
<path style="fill:#d4ce4c; stroke:none;" d="M54 162L55 163L54 162z"/>
<path style="fill:#0403c6; stroke:none;" d="M228 162L229 163L228 162z"/>
<path style="fill:#f8f7f7; stroke:none;" d="M238 162.428C223.145 164.555 208.646 169.119 196 177.345C184.853 184.596 174.429 193.821 167.079 205C160.375 215.195 155.163 225.976 152.804 238C138.979 308.469 201.069 365.372 270 354.725C283.204 352.686 295.623 347.431 307 340.55C317.643 334.113 327.321 325.096 334.572 315C384.931 244.884 321.464 150.477 238 162.428z"/>
<path style="fill:#0403c6; stroke:none;" d="M274 162L275 163L274 162z"/>
<path style="fill:#d4ce4c; stroke:none;" d="M53 163L54 164L53 163z"/>
<path style="fill:#0403c6; stroke:none;" d="M224 163L225 164L224 163M278.667 163.333L279.333 163.667L278.667 163.333z"/>
<path style="fill:#d4ce4c; stroke:none;" d="M52 164L53 165L52 164z"/>
<path style="fill:#0403c6; stroke:none;" d="M220 164L221 165L220 164M282 164L283 165L282 164z"/>
<path style="fill:#d4ce4c; stroke:none;" d="M454 164L455 165L454 164M51 165L52 166L51 165z"/>
<path style="fill:#0403c6; stroke:none;" d="M217 165L218 166L217 165M285 165L286 166L285 165z"/>
<path style="fill:#d4ce4c; stroke:none;" d="M455 165L456 166L455 165M50 166L51 167L50 166z"/>
<path style="fill:#0403c6; stroke:none;" d="M214 166L215 167L214 166M288 166L289 167L288 166z"/>
<path style="fill:#d4ce4c; stroke:none;" d="M456 166L457 167L456 166M49 167L50 168L49 167z"/>
<path style="fill:#0403c6; stroke:none;" d="M212 167L213 168L212 167z"/>
<path style="fill:#d4ce4c; stroke:none;" d="M457 167L458 168L457 167M48 168L49 169L48 168z"/>
<path style="fill:#0403c6; stroke:none;" d="M293 168L294 169L293 168z"/>
<path style="fill:#d4ce4c; stroke:none;" d="M458.333 168.667L458.667 169.333L458.333 168.667M47 169L48 170L47 169z"/>
<path style="fill:#0403c6; stroke:none;" d="M207 169L208 170L207 169M295 169L296 170L295 169z"/>
<path style="fill:#d4ce4c; stroke:none;" d="M46 170L47 171L46 170z"/>
<path style="fill:#0403c6; stroke:none;" d="M205 170L206 171L205 170z"/>
<path style="fill:#d4ce4c; stroke:none;" d="M459 170L460 171L459 170M45 171L46 172L45 171M99 171L92 185L96 186L97 182L113 189C113.951 182.62 105.092 179.853 100 178L101 171L99 171z"/>
<path style="fill:#0403c6; stroke:none;" d="M203 171L204 172L203 171z"/>
<path style="fill:#d4ce4c; stroke:none;" d="M400 171L400 178C394.854 179.628 386.06 182.694 387 189L403 182L404 186L408 185L400 171M460 171L461 172L460 171M44 172L45 173L44 172z"/>
<path style="fill:#0403c6; stroke:none;" d="M201 172L202 173L201 172z"/>
<path style="fill:#d4ce4c; stroke:none;" d="M251 172L251 173L254 174L251 172z"/>
<path style="fill:#0403c6; stroke:none;" d="M301 172L302 173L301 172z"/>
<path style="fill:#d4ce4c; stroke:none;" d="M461 172L462 173L461 172M43 173L44 174L43 173z"/>
<path style="fill:#0403c6; stroke:none;" d="M199 173L200 174L199 173z"/>
<path style="fill:#f01012; stroke:none;" d="M251 173C244.374 185.597 249.275 198.595 263 205C266.547 192.887 257.973 183.171 253 173L251 173z"/>
<path style="fill:#0403c6; stroke:none;" d="M303 173L304 174L303 173z"/>
<path style="fill:#d4ce4c; stroke:none;" d="M42 174L43 175L42 174M250 174L251 175L250 174z"/>
<path style="fill:#0403c6; stroke:none;" d="M305 174L306 175L305 174z"/>
<path style="fill:#d4ce4c; stroke:none;" d="M462 174L463 175L462 174z"/>
<path style="fill:#0403c6; stroke:none;" d="M196 175L197 176L196 175z"/>
<path style="fill:#d4ce4c; stroke:none;" d="M249 175L250 176L249 175M254.333 175.667L254.667 176.333L254.333 175.667M463 175L464 176L463 175M41 176L42 177L41 176z"/>
<path style="fill:#0403c6; stroke:none;" d="M308 176L309 177L308 176z"/>
<path style="fill:#d4ce4c; stroke:none;" d="M464 176L465 177L464 176M40 177L41 178L40 177z"/>
<path style="fill:#0403c6; stroke:none;" d="M193 177L194 178L193 177z"/>
<path style="fill:#d4ce4c; stroke:none;" d="M248 177L249 178L248 177M255.333 177.667L255.667 178.333L255.333 177.667M465.333 177.667L465.667 178.333L465.333 177.667M39 178L40 179L39 178z"/>
<path style="fill:#0403c6; stroke:none;" d="M311 178L312 179L311 178z"/>
<path style="fill:#d4ce4c; stroke:none;" d="M38 179L39 180L38 179z"/>
<path style="fill:#0403c6; stroke:none;" d="M190 179L191 180L190 179z"/>
<path style="fill:#d4ce4c; stroke:none;" d="M247 179L248 180L247 179M256 179L257 180L256 179M466 179L467 180L466 179M37 180L38 181L37 180z"/>
<path style="fill:#0403c6; stroke:none;" d="M314 180L315 181L314 180z"/>
<path style="fill:#d4ce4c; stroke:none;" d="M467 180L468 181L467 180M36 181L37 182L36 181M246 181L247 182L246 181M257 181L258 182L257 181z"/>
<path style="fill:#0403c6; stroke:none;" d="M315 181L316 182L315 181z"/>
<path style="fill:#d4ce4c; stroke:none;" d="M35 182L36 183L35 182z"/>
<path style="fill:#0403c6; stroke:none;" d="M186 182L187 183L186 182z"/>
<path style="fill:#d4ce4c; stroke:none;" d="M258 182L259 183L258 182M468 182L469 183L468 182M245.333 183.667L245.667 184.333L245.333 183.667M469 183L470 184L469 183M34 184L35 185L34 184M259 184L260 185L259 184z"/>
<path style="fill:#0403c6; stroke:none;" d="M319 184L320 185L319 184z"/>
<path style="fill:#d4ce4c; stroke:none;" d="M470 184L471 185L470 184M33 185L34 186L33 185M260 185L261 186L260 185z"/>
<path style="fill:#0403c6; stroke:none;" d="M320 185L321 186L320 185z"/>
<path style="fill:#d4ce4c; stroke:none;" d="M32 186L33 187L32 186M246.333 186.667L246.667 187.333L246.333 186.667M31 187L32 188L31 187M243 187L244 188L243 187M261 187L262 188L261 187M30 188L31 189L30 188z"/>
<path style="fill:#0403c6; stroke:none;" d="M179 188L180 189L179 188z"/>
<path style="fill:#f01012; stroke:none;" d="M243 188C240.583 199.716 242.924 206.73 246 218C249.619 218 255.311 219.058 258.467 216.972C267.607 210.931 248.707 191.453 243 188z"/>
<path style="fill:#d4ce4c; stroke:none;" d="M247 188L248 189L247 188M473 188L474 189L473 188M90 189C88.2797 196.39 101.269 199.362 107 201L109 197L90 189z"/>
<path style="fill:#0403c6; stroke:none;" d="M178 189L179 190L178 189z"/>
<path style="fill:#d4ce4c; stroke:none;" d="M242.333 189.667L242.667 190.333L242.333 189.667M245 189L246 190L245 189M248 189L251 195L257 203L254 201L259 203L248 189M262.333 189.667L262.667 190.333L262.333 189.667M29 190L30 191L29 190z"/>
<path style="fill:#0403c6; stroke:none;" d="M177 190L178 191L177 190z"/>
<path style="fill:#d4ce4c; stroke:none;" d="M246 190L247 191L246 190M28 191L29 192L28 191M401.001 191.559C387.919 194.939 393.162 213.741 406 210.053C418.996 206.32 413.982 188.204 401.001 191.559M475 191L476 192L475 191M27 192L28 193L27 192z"/>
<path style="fill:#0403c6; stroke:none;" d="M175 192L176 193L175 192z"/>
<path style="fill:#f8f7f7; stroke:none;" d="M248 192L250 194L248 192z"/>
<path style="fill:#d4ce4c; stroke:none;" d="M263 192L263 197L264 197L263 192M26 193L27 194L26 193M241.333 193.667L241.667 194.333L241.333 193.667z"/>
<path style="fill:#0403c6; stroke:none;" d="M329 194L330 195L329 194z"/>
<path style="fill:#d4ce4c; stroke:none;" d="M477 194L477 223L478 223L477 194z"/>
<path style="fill:#f8f7f7; stroke:none;" d="M250 195L251 196L250 195z"/>
<path style="fill:#0403c6; stroke:none;" d="M330 195L331 196L330 195M403.004 195.697C395.127 197.726 396.692 207.902 404.981 205.343C411.802 203.237 410.415 193.788 403.004 195.697z"/>
<path style="fill:#f8f7f7; stroke:none;" d="M251 196L253 198L251 196z"/>
<path style="fill:#d4ce4c; stroke:none;" d="M86 198L82 213L87 208C91.6278 210.051 101.737 215.752 104 209L88 204L90 199L86 198z"/>
<path style="fill:#f8f7f7; stroke:none;" d="M253 198L257 203L253 198z"/>
<path style="fill:#0403c6; stroke:none;" d="M169 199L170 200L169 199M334 200L335 201L334 200M335 201L336 202L335 201M166 203L167 204L166 203z"/>
<path style="fill:#d4ce4c; stroke:none;" d="M241.333 203.667L241.667 204.333L241.333 203.667M259 203L260 204L259 203M260 204L261 205L260 204M263 204L261 205L261 206L263 204z"/>
<path style="fill:#0403c6; stroke:none;" d="M337 204L338 205L337 204z"/>
<path style="fill:#d4ce4c; stroke:none;" d="M26 206L27 207L26 206z"/>
<path style="fill:#0403c6; stroke:none;" d="M164 206L165 207L164 206z"/>
<path style="fill:#d4ce4c; stroke:none;" d="M259 206L260 207L259 206M242.333 207.667L242.667 208.333L242.333 207.667M260 207L261 208L260 207z"/>
<path style="fill:#0403c6; stroke:none;" d="M339 207L340 208L339 207z"/>
<path style="fill:#d4ce4c; stroke:none;" d="M243.333 210.667L243.667 211.333L243.333 210.667z"/>
<path style="fill:#0403c6; stroke:none;" d="M161 211L162 212L161 211M342 212L343 213L342 212z"/>
<path style="fill:#d4ce4c; stroke:none;" d="M244 213L245 214L244 213M261 213L262 214L261 213M399 217C400.974 222.889 408.164 219.385 413 219L413 220C410.507 220.913 397.923 226.045 402.623 230.002C405.632 232.536 412.249 232.097 416 233L416 234L403 236L403 240C407.495 239.806 419.157 239.471 421.953 235.441C426.464 228.938 411.156 228.136 408 228L408 227C414.502 224.195 421.685 220.829 418 213L399 217z"/>
<path style="fill:#0403c6; stroke:none;" d="M343 214L344 215L343 214z"/>
<path style="fill:#d4ce4c; stroke:none;" d="M245 215C238.248 217.02 231.11 222.613 243 223L240 284C234.399 282.848 219.304 286.292 218.137 278.984C217.027 272.04 227.032 266.871 221.258 259.228C216.189 252.52 205.814 256.699 208 265L210 265C211.714 262.991 214.72 259.559 216.958 263.207C219.855 267.93 213.801 274.755 214.431 279.999C215.074 285.358 219.424 287.402 222.505 291.184C229.094 299.272 230.799 305.984 243 305C240.199 284.793 245.139 261.54 246.039 241C246.463 231.35 245.585 223.04 257 223C259.048 248.953 266.187 279.392 261 305C274.098 304.991 275.001 299.112 282.637 290.375C285.738 286.826 289.34 285.161 289.89 280C290.438 274.873 285.203 267.56 287.423 263.207C289.346 259.435 292.529 263.127 294 265L297 265C298.484 256.93 288.87 252.406 283.603 259.228C277.503 267.131 289.168 273.286 286.674 279.944C283.958 287.197 272.694 281.645 267 284C262.182 265.38 261.053 242.24 261 223C276.015 222.823 263.826 211.374 259 218L268 218L268 221C256.135 221.141 260.461 233.432 261.089 242C261.822 251.999 262.834 262.028 263.831 272C264.162 275.309 263.534 280.705 265.988 283.357C268.575 286.152 282.317 285.846 286 285L286 286C276.344 291.13 275.794 303.335 263 304C266.722 283.88 260.728 261.307 259.989 241C259.798 235.741 260.755 222.162 253.945 221.153C244.482 219.75 245.336 231.476 245.039 238C244.453 250.925 244.055 264.125 242.83 277C242.02 285.51 239.114 295.897 242 304C229.964 303.442 224.951 292.237 218 284L240 286C244.523 271.108 243.336 252.488 244.039 237C244.386 229.374 247.381 221.338 237 221L237 218C239.732 217.998 245.632 218.836 245 215z"/>
<path style="fill:#0403c6; stroke:none;" d="M344 216L345 217L344 216z"/>
<path style="fill:#d4ce4c; stroke:none;" d="M95 223L93 232L97 233C99.5523 228.125 101.205 217.393 92.0139 219.337C87.9965 220.187 86.2821 223.813 82 224L85 218C76.8288 216.779 77.6692 229.962 85.0046 229.454C88.7596 229.193 92.0717 225.052 95 223z"/>
<path style="fill:#0403c6; stroke:none;" d="M245 217L246 218L245 217z"/>
<path style="fill:#020203; stroke:none;" d="M237 218L237 221L245 225L246 225C249.551 219.211 254.905 221.197 260 224L268 221L268 218L237 218z"/>
<path style="fill:#0403c6; stroke:none;" d="M345 218L346 219L345 218M413.667 218.333L414.333 218.667L413.667 218.333M346 220L347 221L346 220M156 221L157 222L156 221M247 221L248 222L247 221z"/>
<path style="fill:#d4ce4c; stroke:none;" d="M28 222L29 223L28 222z"/>
<path style="fill:#0403c6; stroke:none;" d="M244 222L245 223L244 222M258 223L258 225L260 225L258 223M347 223L348 224L347 223z"/>
<path style="fill:#d4ce4c; stroke:none;" d="M476 224L476 229L477 229L476 224z"/>
<path style="fill:#0403c6; stroke:none;" d="M245.333 225.667L245.667 226.333L245.333 225.667z"/>
<path style="fill:#020203; stroke:none;" d="M259 225L259 232L260 232L259 225z"/>
<path style="fill:#0403c6; stroke:none;" d="M348 225L349 226L348 225M154 226L155 227L154 226z"/>
<path style="fill:#020203; stroke:none;" d="M245 227L245 230L246 230L245 227z"/>
<path style="fill:#0403c6; stroke:none;" d="M349 228L350 229L349 228M153 229L154 230L153 229z"/>
<path style="fill:#d4ce4c; stroke:none;" d="M29 230L29 233L30 233L29 230z"/>
<path style="fill:#0403c6; stroke:none;" d="M245 230L245 234L246 234L245 230M350 231L351 232L350 231M152 232L153 233L152 232M259 232L260 233L259 232z"/>
<path style="fill:#020203; stroke:none;" d="M244 233L244 246L245 246L244 233M259.333 233.667L259.667 234.333L259.333 233.667z"/>
<path style="fill:#0403c6; stroke:none;" d="M260 234L261 237L260 234z"/>
<path style="fill:#d4ce4c; stroke:none;" d="M76 238L89 240L89 241C82.7814 242.477 76.7829 244.372 75 251L95 254L96 250L83 249C88.0166 244.486 95.7756 244.748 97 237C91.1465 236.26 79.8735 232.634 76 238z"/>
<path style="fill:#0403c6; stroke:none;" d="M351 235L352 236L351 235z"/>
<path style="fill:#d4ce4c; stroke:none;" d="M30 236L30 240L31 240L30 236M475 236L475 242L476 242L475 236z"/>
<path style="fill:#0403c6; stroke:none;" d="M151 237L152 238L151 237z"/>
<path style="fill:#020203; stroke:none;" d="M260 237L260 245L261 245L260 237z"/>
<path style="fill:#0403c6; stroke:none;" d="M352 239L353 240L352 239M150 241L151 242L150 241z"/>
<path style="fill:#d4ce4c; stroke:none;" d="M31 243L31 248L32 248L31 243M411.004 244.573C397.321 248.486 405.889 266.264 418.985 262.566C431.387 259.065 423.004 241.142 411.004 244.573z"/>
<path style="fill:#0403c6; stroke:none;" d="M243 245L243 250L244 250L243 245M260 245L260 248L262 245L260 245M353 245L354 246L353 245z"/>
<path style="fill:#d4ce4c; stroke:none;" d="M474 246L474 251L475 251L474 246z"/>
<path style="fill:#0403c6; stroke:none;" d="M149.333 247.667L149.667 248.333L149.333 247.667z"/>
<path style="fill:#020203; stroke:none;" d="M261 247L261 258L262 258L261 247z"/>
<path style="fill:#d4ce4c; stroke:none;" d="M32 249L32 253L33 253L32 249z"/>
<path style="fill:#0403c6; stroke:none;" d="M410.318 250.028C403.608 254.51 413.219 261.464 418.682 257.821C425.383 253.352 415.746 246.401 410.318 250.028z"/>
<path style="fill:#020203; stroke:none;" d="M243 250L243 253L244 253L243 250z"/>
<path style="fill:#0403c6; stroke:none;" d="M243 253L244 254L243 253z"/>
<path style="fill:#020203; stroke:none;" d="M243 254L243 259L244 259L243 254z"/>
<path style="fill:#0403c6; stroke:none;" d="M262 256L262 261L263 261L262 256z"/>
<path style="fill:#020203; stroke:none;" d="M208 263L214 258C210.223 257.938 209.037 259.425 208 263z"/>
<path style="fill:#0403c6; stroke:none;" d="M213 257L214 258L213 257M290.333 257.667L290.667 258.333L290.333 257.667z"/>
<path style="fill:#020203; stroke:none;" d="M291 257L296 263L291 257z"/>
<path style="fill:#0403c6; stroke:none;" d="M292 257L293 258L292 257M209 258L210 259L209 258M216 258L217 259L216 258z"/>
<path style="fill:#020203; stroke:none;" d="M217 258C218.962 263.95 218.998 267.035 217 273C222.41 268.712 223.871 261.606 217 258M288 273C285.553 266.991 285.025 263.926 288 258C281.474 261.292 281.558 269.619 288 273z"/>
<path style="fill:#d4ce4c; stroke:none;" d="M75 259L75 263C80.8637 263 93.7831 265.68 96 259L75 259z"/>
<path style="fill:#0403c6; stroke:none;" d="M212 259L213 260L212 259M243 259L242 263L243 259M218 261L219 262L218 261z"/>
<path style="fill:#020203; stroke:none;" d="M262 261L262 270L263 270L262 261z"/>
<path style="fill:#0403c6; stroke:none;" d="M296 261L297 262L296 261M285 262L286 263L285 262z"/>
<path style="fill:#020203; stroke:none;" d="M242 263L243 264L242 263z"/>
<path style="fill:#0403c6; stroke:none;" d="M219 264L219 267L220 267L219 264M242 264L242 267L243 267L242 264z"/>
<path style="fill:#020203; stroke:none;" d="M242 267L242 276L243 276L242 267z"/>
<path style="fill:#d4ce4c; stroke:none;" d="M35 268L36 269L35 268z"/>
<path style="fill:#0403c6; stroke:none;" d="M149 269L150 270L149 269M263 269L263 273L264 273L263 269M217 271L218 272L217 271M219 271L220 272L219 271M218 272L219 273L218 272M353 272L354 273L353 272z"/>
<path style="fill:#020203; stroke:none;" d="M263 273L263 304C276.205 303.395 276.608 292.259 286 286L286 285L265 285L263 273z"/>
<path style="fill:#0403c6; stroke:none;" d="M287 273L288 274L287 273M150 275L151 276L150 275M241 275L242 276L241 275M242 276L242 280L243 280L242 276z"/>
<path style="fill:#d4ce4c; stroke:none;" d="M37.3333 277.667L37.6667 278.333L37.3333 277.667z"/>
<path style="fill:#0403c6; stroke:none;" d="M352 278L353 279L352 278z"/>
<path style="fill:#020203; stroke:none;" d="M241 279L240 286L219 285L219 286C227.589 292.705 228.3 303.341 241 304L241 279z"/>
<path style="fill:#0403c6; stroke:none;" d="M264.333 279.667L264.667 280.333L264.333 279.667z"/>
<path style="fill:#d4ce4c; stroke:none;" d="M469 279L470 280L469 279z"/>
<path style="fill:#0403c6; stroke:none;" d="M151 280L152 281L151 280M288 280L289 281L288 280z"/>
<path style="fill:#d4ce4c; stroke:none;" d="M38.3333 282.667L38.6667 283.333L38.3333 282.667z"/>
<path style="fill:#0403c6; stroke:none;" d="M351 282L352 283L351 282M152 284L153 285L152 284M218.333 284.667L218.667 285.333L218.333 284.667M228 284L229 285L228 284M235 284L236 285L235 284M263 284L263 288L264 288L263 284M265 284L266 285L265 284M286 284L287 285L286 284M220 285L221 286L220 285M350 285L351 286L350 285M219 286L220 287L219 286z"/>
<path style="fill:#d4ce4c; stroke:none;" d="M39.3333 287.667L39.6667 288.333L39.3333 287.667z"/>
<path style="fill:#0403c6; stroke:none;" d="M221 287L222 288L221 287M153 288L154 289L153 288M281 288L282 289L281 288z"/>
<path style="fill:#d4ce4c; stroke:none;" d="M467 288L468 289L467 288z"/>
<path style="fill:#0403c6; stroke:none;" d="M349 289L350 290L349 289z"/>
<path style="fill:#d4ce4c; stroke:none;" d="M40.3333 291.667L40.6667 292.333L40.3333 291.667z"/>
<path style="fill:#0403c6; stroke:none;" d="M279 291L280 292L279 291M348 291L349 292L348 291z"/>
<path style="fill:#d4ce4c; stroke:none;" d="M194 301C196.9 310.275 213.732 311.995 222 312L222 314C209.601 313.992 199.653 307.509 188 306.422C182.65 305.923 177.857 308.735 177 314C183.939 316.003 189.094 322.03 196 323.606C212.049 327.267 235.661 318.661 251 314L251 313L239 311L240 307C230.627 304.543 226.125 294.963 217.996 292.708C211.315 290.854 200.144 298.616 194 301z"/>
<path style="fill:#0403c6; stroke:none;" d="M225 292L226 293L225 292z"/>
<path style="fill:#d4ce4c; stroke:none;" d="M265 307L267 311L254 313L254 314C269.64 318.752 291.543 326.691 308 323.772C315.426 322.455 320.355 315.38 328 314C327.127 308.839 322.243 305.935 317 306.422C305.001 307.537 294.772 313.999 282 314L282 313L311 304C308.02 298.446 291.336 290.195 285.09 293.219C277.341 296.97 274.059 304.372 265 307M466.333 292.667L466.667 293.333L466.333 292.667z"/>
<path style="fill:#0403c6; stroke:none;" d="M155 293L156 294L155 293M214 294L215 295L214 294z"/>
<path style="fill:#020203; stroke:none;" d="M196 302L196 304C207.188 308.316 223.522 314.876 235 308C229.548 304.648 223.746 296.397 217.985 294.697C211.8 292.871 201.456 299.418 196 302z"/>
<path style="fill:#0403c6; stroke:none;" d="M285 294L286 295L285 294z"/>
<path style="fill:#020203; stroke:none;" d="M269 308L269 309C284.415 310.95 294.337 308.192 309 304C305.846 299.188 290.761 292.223 285.184 295.194C279.335 298.311 275.244 304.674 269 308z"/>
<path style="fill:#0403c6; stroke:none;" d="M347 294L348 295L347 294M220 295L221 296L220 295M226 295L227 296L226 295z"/>
<path style="fill:#d4ce4c; stroke:none;" d="M249.152 296.032C243.438 299.378 249.378 307.771 254.772 304.663C261.244 300.933 255.28 292.443 249.152 296.032z"/>
<path style="fill:#0403c6; stroke:none;" d="M292 295L293 296L292 295M156 296L157 297L156 296M221 296L222 297L221 296M240 296L241 297L240 296z"/>
<path style="fill:#d4ce4c; stroke:none;" d="M465 296L465 299L466 299L465 296z"/>
<path style="fill:#0403c6; stroke:none;" d="M206 297L207 298L206 297z"/>
<path style="fill:#020203; stroke:none;" d="M249.623 298.029C246.299 300.813 251.343 305.615 254.678 303.2C259.303 299.851 253.252 294.988 249.623 298.029z"/>
<path style="fill:#0403c6; stroke:none;" d="M282 297L283 298L282 297M157 298L158 299L157 298M300 298L301 299L300 298M247 299L248 300L247 299M345 299L346 300L345 299M158 300L159 301L158 300M199 300L200 301L199 300M280 300L281 301L280 300M279 301L280 302L279 301M307 301L308 302L307 301M344 301L345 302L344 301M159 302L160 303L159 302M233 302L234 303L233 302M241.333 302.667L241.667 303.333L241.333 302.667M268 303L269 304L268 303z"/>
<path style="fill:#d4ce4c; stroke:none;" d="M43 304L44 305L43 304z"/>
<path style="fill:#0403c6; stroke:none;" d="M160 304L161 305L160 304M306 304L307 305L306 304M304 305L305 306L304 305M202 306L203 307L202 306M272 306L273 307L272 306z"/>
<path style="fill:#d4ce4c; stroke:none;" d="M44 307L45 308L44 307z"/>
<path style="fill:#0403c6; stroke:none;" d="M205 307L206 308L205 307M234 307L235 308L234 307M299 307L300 308L299 307z"/>
<path style="fill:#020203; stroke:none;" d="M179 311L179 312C184.462 315.233 189.929 320.322 196 322.197C209.801 326.457 223.894 317.712 237 315C231.739 312.797 224.664 314.998 219 315C206.385 315.004 189.877 304.391 179 311z"/>
<path style="fill:#0403c6; stroke:none;" d="M235 308L236 309L235 308M314 308L315 309L314 308z"/>
<path style="fill:#020203; stroke:none;" d="M268 314L268 315C280.786 317.673 294.492 326.144 308 322.431C314.361 320.683 320.125 315.085 326 312C317.855 303.872 307.254 312.353 298 314.192C287.981 316.184 278.037 314.028 268 314z"/>
<path style="fill:#0403c6; stroke:none;" d="M321 308L322 309L321 308M340 308L341 309L340 308M163 309L164 310L163 309M181 309L182 310L181 309M192 309L193 310L192 309M232 309L233 310L232 309M272 309L273 310L272 309M292 309L293 310L292 309M312 309L313 310L312 309M179 310L180 311L179 310M194 310L195 311L194 310M219 310L220 311L219 310M224.667 310.333L225.333 310.667L224.667 310.333M278.667 310.333L279.333 310.667L278.667 310.333M284 310L285 311L284 310M339 310L340 311L339 310z"/>
<path style="fill:#d4ce4c; stroke:none;" d="M45 311L46 312L45 311z"/>
<path style="fill:#0403c6; stroke:none;" d="M338 311L339 312L338 311M165 312L166 313L165 312M179 312L180 313L179 312M199 312L200 313L199 312M238.667 313.333L239.333 313.667L238.667 313.333M265 313L268 315L265 313M269 313L270 314L269 313M301 313L302 314L301 313M322 313L323 314L322 313z"/>
<path style="fill:#d4ce4c; stroke:none;" d="M46 314L47 315L46 314z"/>
<path style="fill:#0403c6; stroke:none;" d="M228 314L229 315L228 314M237 314L238 315L237 314M276 314L277 315L276 314M296 314L297 315L296 314M336 314L337 315L336 314z"/>
<path style="fill:#d4ce4c; stroke:none;" d="M460 314L461 315L460 314z"/>
<path style="fill:#0403c6; stroke:none;" d="M167 315L168 316L167 315M185 315L186 316L185 315M234 315L235 316L234 315M269.667 315.333L270.333 315.667L269.667 315.333M230 316L231 317L230 316M274 316L275 317L274 316M317 316L318 317L317 316z"/>
<path style="fill:#d4ce4c; stroke:none;" d="M47.3333 317.667L47.6667 318.333L47.3333 317.667M459 317L460 318L459 317M199 328C205.383 339.298 212.166 335.032 221 330C208.301 342.852 225.97 346.75 238 347C235.027 335.417 233.379 333.364 239 322L235 318L199 328M269 318C264.54 324.533 270.518 327.26 270.849 334C271.088 338.871 267.77 342.728 266 347C270.966 346.958 289.759 345.137 289.654 337.995C289.603 334.51 284.261 331.17 282 329C290.337 333.646 300.937 341.353 305 327L269 318z"/>
<path style="fill:#0403c6; stroke:none;" d="M333 318L334 319L333 318M282 319L283 320L282 319M313 319L314 320L313 319z"/>
<path style="fill:#d4ce4c; stroke:none;" d="M48.3333 320.667L48.6667 321.333L48.3333 320.667z"/>
<path style="fill:#0403c6; stroke:none;" d="M171 320L172 321L171 320z"/>
<path style="fill:#d4ce4c; stroke:none;" d="M247.001 320.653C229.567 326.146 238.775 353.106 256 348.21C275.49 342.67 265.932 314.687 247.001 320.653z"/>
<path style="fill:#0403c6; stroke:none;" d="M285 320L286 321L285 320z"/>
<path style="fill:#d4ce4c; stroke:none;" d="M458 320L459 321L458 320z"/>
<path style="fill:#0403c6; stroke:none;" d="M229 321L230 322L229 321z"/>
<path style="fill:#020203; stroke:none;" d="M230 321L231 322L230 321z"/>
<path style="fill:#0403c6; stroke:none;" d="M231 321L232 322L231 321M250 321L251 322L250 321z"/>
<path style="fill:#020203; stroke:none;" d="M251 321L251 322L254 322L251 321z"/>
<path style="fill:#0403c6; stroke:none;" d="M254 321L255 322L254 321M273 321L274 322L273 321z"/>
<path style="fill:#020203; stroke:none;" d="M274 321L274 322C282.762 327.78 294.49 339.985 303 329L274 321z"/>
<path style="fill:#0403c6; stroke:none;" d="M275 321L276 322L275 321M289 321L290 322L289 321M196 322L197 323L196 322M210 322L211 323L210 322M226 322L227 323L226 322z"/>
<path style="fill:#020203; stroke:none;" d="M202 329C210.509 340.417 220.517 327.091 230 323L202 329z"/>
<path style="fill:#0403c6; stroke:none;" d="M246 322L247 323L246 322z"/>
<path style="fill:#020203; stroke:none;" d="M247 322L248 323L247 322z"/>
<path style="fill:#0403c6; stroke:none;" d="M248 322L249 323L248 322M256.667 322.333L257.333 322.667L256.667 322.333M294 322L295 323L294 322z"/>
<path style="fill:#020203; stroke:none;" d="M235 323C228.449 327.763 218.355 331.68 216 340L235 345L232.37 333L235 323z"/>
<path style="fill:#0403c6; stroke:none;" d="M236 323L237 324L236 323z"/>
<path style="fill:#020203; stroke:none;" d="M261 325C263.501 331.876 262.269 343.353 253 344.979C246.759 346.074 241.485 336.72 241.973 331.424C242.26 328.314 244.45 325.597 246 323C234.931 328.414 237.679 345.048 250 346.783C262.773 348.582 271.862 333.61 261 325z"/>
<path style="fill:#0403c6; stroke:none;" d="M258 323L259 324L258 323z"/>
<path style="fill:#020203; stroke:none;" d="M259 323L260 324L259 323z"/>
<path style="fill:#0403c6; stroke:none;" d="M268.667 323.333L269.333 323.667L268.667 323.333M276 323L277 324L276 323M280 323L281 324L280 323z"/>
<path style="fill:#d4ce4c; stroke:none;" d="M457 323L458 324L457 323z"/>
<path style="fill:#0403c6; stroke:none;" d="M233 324L234 325L233 324z"/>
<path style="fill:#f8f7f7; stroke:none;" d="M248.044 324.742C237.97 328.843 245.338 347.622 254.985 342.957C266.621 337.329 260.966 319.483 248.044 324.742z"/>
<path style="fill:#020203; stroke:none;" d="M260 324L261 325L260 324M269 324C271.914 332.21 272.343 336.794 269 345L289 339C285.549 332.189 276.172 326.285 269 324z"/>
<path style="fill:#0403c6; stroke:none;" d="M282 324L283 325L282 324M328 324L329 325L328 324M218 325L219 326L218 325M224 325L225 326L224 325M262 325L263 326L262 325M327 325L328 326L327 325M234 326L235 327L234 326M243 326L244 327L243 326M261 326L262 327L261 326M263 326L264 327L263 326M274 326L275 327L274 326M289 326L290 327L289 326M326 326L327 327L326 326z"/>
<path style="fill:#d4ce4c; stroke:none;" d="M50 327L51 328L50 327z"/>
<path style="fill:#0403c6; stroke:none;" d="M221 327L222 328L221 327M228 327L229 328L228 327M240 327L241 328L240 327z"/>
<path style="fill:#d4ce4c; stroke:none;" d="M243 327C237.214 346.618 262.532 350.985 263 329L262 329C261.335 336.555 254.238 348.916 246.394 339.891C242.777 335.729 244.137 331.715 243 327z"/>
<path style="fill:#0403c6; stroke:none;" d="M270 327L271 328L270 327M283 327L284 328L283 327M294 327L295 328L294 327M325 327L326 328L325 327M202 328L203 329L202 328M262 328L263 329L262 328M277 328L278 329L277 328M301 328L302 329L301 328M324 328L325 329L324 328M225 329L226 330L225 329M271 329L272 330L271 329M286 329L287 330L286 329M323 329L324 330L323 329z"/>
<path style="fill:#d4ce4c; stroke:none;" d="M455 329L456 330L455 329M51 330L52 331L51 330z"/>
<path style="fill:#0403c6; stroke:none;" d="M202 330L203 331L202 330M216 330L217 331L216 330M280 330L281 331L280 330M232 331L233 332L232 331M241 331L242 332L241 331z"/>
<path style="fill:#d4ce4c; stroke:none;" d="M454 331L455 332L454 331z"/>
<path style="fill:#0403c6; stroke:none;" d="M221 332L222 333L221 332M290 332L291 333L290 332z"/>
<path style="fill:#d4ce4c; stroke:none;" d="M52 333L53 334L52 333z"/>
<path style="fill:#0403c6; stroke:none;" d="M184 333L185 334L184 333M238 333L238 336L239 336L238 333M298 333L299 334L298 333M211 334L212 335L211 334M285 334L286 335L285 334z"/>
<path style="fill:#d4ce4c; stroke:none;" d="M453 334L454 335L453 334M53 335L54 336L53 335z"/>
<path style="fill:#0403c6; stroke:none;" d="M316 335L317 336L316 335M242 336L243 337L242 336M189 337L190 338L189 337z"/>
<path style="fill:#d4ce4c; stroke:none;" d="M54 338L55 339L54 338z"/>
<path style="fill:#0403c6; stroke:none;" d="M215 338L216 339L215 338M265 338L266 339L265 338M312 338L313 339L312 338z"/>
<path style="fill:#d4ce4c; stroke:none;" d="M451 338L452 339L451 338z"/>
<path style="fill:#0403c6; stroke:none;" d="M239 339L240 340L239 339M288 339L289 340L288 339z"/>
<path style="fill:#d4ce4c; stroke:none;" d="M55.3333 340.667L55.6667 341.333L55.3333 340.667z"/>
<path style="fill:#0403c6; stroke:none;" d="M244 340L245 341L244 340M286 340L287 341L286 340M309 340L310 341L309 340M220 341L221 342L220 341M223 342L224 343L223 342M241 342L242 343L241 342M281 342L282 343L281 342M306 342L307 343L306 342z"/>
<path style="fill:#d4ce4c; stroke:none;" d="M56 343L57 344L56 343z"/>
<path style="fill:#0403c6; stroke:none;" d="M198 343L199 344L198 343M226 343L227 344L226 343M304 343L305 344L304 343z"/>
<path style="fill:#d4ce4c; stroke:none;" d="M449 343L450 344L449 343z"/>
<path style="fill:#0403c6; stroke:none;" d="M200 344L201 345L200 344M230 344L231 345L230 344M235 344L234 346L236 346L235 344M274 344L275 345L274 344M245 345L246 346L245 345M250 345L251 346L250 345M253 345L254 346L253 345M269.667 345.333L270.333 345.667L269.667 345.333z"/>
<path style="fill:#d4ce4c; stroke:none;" d="M57 346L58 347L57 346z"/>
<path style="fill:#0403c6; stroke:none;" d="M256 346L257 347L256 346M299 346L300 347L299 346M206 347L207 348L206 347M297 347L298 348L297 347M208 348L209 349L208 348z"/>
<path style="fill:#d4ce4c; stroke:none;" d="M447 348L448 349L447 348z"/>
<path style="fill:#0403c6; stroke:none;" d="M210 349L211 350L210 349M292 349L293 350L292 349z"/>
<path style="fill:#d4ce4c; stroke:none;" d="M59 350L60 351L59 350z"/>
<path style="fill:#0403c6; stroke:none;" d="M213 350L214 351L213 350M290 350L291 351L290 350z"/>
<path style="fill:#d4ce4c; stroke:none;" d="M446 350L447 351L446 350z"/>
<path style="fill:#0403c6; stroke:none;" d="M215 351L216 352L215 351M287 351L288 352L287 351M218 352L219 353L218 352z"/>
<path style="fill:#d4ce4c; stroke:none;" d="M445 352L446 353L445 352z"/>
<path style="fill:#0403c6; stroke:none;" d="M221 353L222 354L221 353M281 353L282 354L281 353M225 354L226 355L225 354M277 354L278 355L277 354z"/>
<path style="fill:#d4ce4c; stroke:none;" d="M444 354L445 355L444 354z"/>
<path style="fill:#0403c6; stroke:none;" d="M229.667 355.333L230.333 355.667L229.667 355.333M273 355L274 356L273 355M235.667 356.333L236.333 356.667L235.667 356.333M267 356L268 357L267 356z"/>
<path style="fill:#d4ce4c; stroke:none;" d="M443 356L444 357L443 356z"/>
<path style="fill:#0403c6; stroke:none;" d="M245 357L245 358L249 358L245 357M254 357L254 358L259 358L254 357z"/>
<path style="fill:#d4ce4c; stroke:none;" d="M63 359L64 360L63 359M64 361L65 362L64 361M438 367L439 368L438 367M67 368L68 369L67 368M68 370L69 371L68 370M436 370L437 371L436 370M69 372L70 373L69 372M435 372L436 373L435 372M434 374L435 375L434 374M71 375L72 376L71 375M433 376L434 377L433 376M72 377L73 378L72 377M432 378L433 379L432 378M73 379L74 380L73 379M74 381L75 382L74 381M75 383L76 384L75 383M76 384L77 385L76 384M77 386L78 387L77 386M427 387L428 388L427 387M78 388L79 389L78 388M79 390L80 391L79 390M425 390L426 391L425 390M80 392L81 393L80 392M424 392L425 393L424 392M81 393L82 394L81 393M320 416C323.171 414.052 323.823 412.632 323 409L337 408C335.379 404.595 322.847 389.547 319.117 395.453C316.331 399.865 319.895 410.893 320 416M82 395L83 396L82 395M186 395L176 409L172 404C172.181 409.563 176.824 416.347 182.582 410.681C186.015 407.303 188.176 400.625 189 396L186 395M83 397L84 398L83 397z"/>
<path style="fill:#0403c6; stroke:none;" d="M322 399L323 405L327 404L322 399z"/>
<path style="fill:#d4ce4c; stroke:none;" d="M85 400L86 401L85 400M292 405L293 408L299 407L303 422L307 421L303.831 408.104L307 400L292 405M86 402L87 403L86 402M190 419L195 420L204 418C204.3 421.864 205.089 423.348 209 424L207 403C199.105 402.75 193.755 412.971 190 419M417 404L418 405L417 404M88 405L89 406L88 405M221 407L218 427L222 428L227 420C228.353 424.941 229.467 428.559 235 429C231.79 419.572 230.587 418.002 237 410C231.33 408.705 227.928 412.254 224 416L225 408L221 407M90 408L91 409L90 408M269 409L272 429L276 428L275 420L289 426L282 419C291.553 407.97 275.937 408.453 269 409z"/>
<path style="fill:#0403c6; stroke:none;" d="M202 409L200 414L204 415L204 409L202 409z"/>
<path style="fill:#d4ce4c; stroke:none;" d="M414 409L415 410L414 409M243 430L248 430L248 426L262 430C261.14 426.285 257.024 408.362 251.375 410.662C246.723 412.556 244.444 425.561 243 430M92 411L93 412L92 411z"/>
<path style="fill:#0403c6; stroke:none;" d="M274 412L274 417C278.051 416.349 280.674 415.451 280 411L274 412z"/>
<path style="fill:#d4ce4c; stroke:none;" d="M93 412L94 413L93 412M94 414L95 415L94 414M411 414L412 415L411 414M95 415L96 416L95 415M410 415L411 416L410 415z"/>
<path style="fill:#0403c6; stroke:none;" d="M252 416L250 422L255 422L252 416z"/>
<path style="fill:#d4ce4c; stroke:none;" d="M96 417L97 418L96 417M97 418L98 419L97 418M408 418L409 419L408 418M98 420L99 421L98 420M407 420L408 421L407 420M100 423L101 424L100 423M405 423L406 424L405 423M101 424L102 425L101 424M103 427L104 428L103 427M401 429L402 430L401 429M106 431L107 432L106 431M399 432L400 433L399 432M389 446L390 447L389 446M126.667 450.333L127.333 450.667L126.667 450.333M380.667 450.333L381.333 450.667L380.667 450.333M131 451L132 452L131 451M375 451L376 452L375 451M136 452L137 453L136 452M371 452L372 453L371 452M366 453L367 454L366 453M144 454L145 455L144 454M154 456L155 457L154 456M170 459L171 460L170 459M176 460L176 461L181 461L176 460M324 460L324 461L328 461L324 460M186.667 461.333L187.333 461.667L186.667 461.333M317 461L318 462L317 461M193.667 462.333L194.333 462.667L193.667 462.333M309 462L309 463L312 463L309 462M202 463L203 464L202 463M301 463L302 464L301 463M211 464L212 465L211 464M290 464L291 465L290 464z"/>
</svg>
