<?xml version="1.0" encoding="utf-8"?>
<!-- Generator: Adobe Illustrator 25.3.1, SVG Export Plug-In . SVG Version: 6.00 Build 0)  -->
<svg version="1.1" xmlns="http://www.w3.org/2000/svg" xmlns:xlink="http://www.w3.org/1999/xlink" x="0px" y="0px"
	 viewBox="0 0 600 600" style="enable-background:new 0 0 600 600;" xml:space="preserve">
<style type="text/css">
	.st0{fill:#FFFFFF;stroke:#262424;stroke-width:1.7994;stroke-linecap:round;stroke-linejoin:round;stroke-miterlimit:10;}
	.st1{fill:#DE9244;}
	.st2{fill:#88C0C2;}
	.st3{fill:none;stroke:#DE9244;stroke-width:1.5;stroke-linecap:round;stroke-linejoin:round;stroke-miterlimit:10;}
	.st4{fill:none;stroke:#88C0C2;stroke-width:1.5;stroke-linecap:round;stroke-linejoin:round;stroke-miterlimit:10;}
	.st5{fill:#FFFFFF;stroke:#262424;stroke-width:1.5;stroke-linecap:round;stroke-linejoin:round;stroke-miterlimit:10;}
	.st6{fill:#FFFFFF;}
	.st7{fill:none;stroke:#262424;stroke-width:1.5;stroke-linecap:round;stroke-linejoin:round;stroke-miterlimit:10;}
	.st8{fill:#262424;}
	.st9{fill:none;stroke:#262424;stroke-width:1.7994;stroke-linecap:round;stroke-linejoin:round;stroke-miterlimit:10;}
	.st10{fill:#DE9244;stroke:#DE9244;stroke-width:1.6806;stroke-linecap:round;stroke-linejoin:round;stroke-miterlimit:10;}
</style>
<g id="LOST_SIGNAL_1_">
	<g>
		<g>
			<g>
				<path class="st0" d="M157.76,191.94v12.5c24.15,0,43.8,19.65,43.8,43.8h12.5C214.05,217.19,188.79,191.94,157.76,191.94z"/>
			</g>
			<g>
				<path class="st0" d="M157.76,210.65v12.5c13.83,0,25.08,11.25,25.08,25.08h12.5C195.33,227.51,178.48,210.65,157.76,210.65z"/>
			</g>
			<g>
				<path class="st0" d="M157.76,229.36v12.5c3.51,0,6.37,2.86,6.37,6.37h12.5C176.62,237.82,168.15,229.36,157.76,229.36z"/>
			</g>
		</g>
		
			<rect x="177.52" y="191.99" transform="matrix(0.7071 0.7071 -0.7071 0.7071 212.3946 -61.3853)" class="st0" width="5.54" height="67.4"/>
	</g>
</g>
<g id="LOST_SIGNAL">
	<g>
		<g>
			<rect x="378.53" y="232.94" class="st0" width="12.36" height="18.53"/>
			<rect x="397.3" y="223.68" class="st0" width="12.36" height="27.8"/>
			<rect x="416.07" y="214.41" class="st0" width="12.36" height="37.07"/>
		</g>
		<polygon class="st0" points="406.63,190.05 412.75,196.17 406.98,201.93 412.75,207.7 406.64,213.8 400.88,208.04 395.11,213.81 
			388.99,207.7 394.76,201.93 389,196.16 395.11,190.05 400.87,195.82 		"/>
	</g>
</g>
<g id="DOTS">
	<g>
		<circle class="st1" cx="126.05" cy="414.47" r="6.25"/>
		<circle class="st1" cx="458.58" cy="446.01" r="2.6"/>
		<circle class="st2" cx="403.48" cy="292.41" r="3.55"/>
		<circle class="st2" cx="128.55" cy="308.87" r="2.5"/>
		<circle class="st1" cx="163.32" cy="90.93" r="5.08"/>
		<circle class="st1" cx="381.16" cy="62.11" r="5.25"/>
		<circle class="st2" cx="431.21" cy="120.15" r="3.5"/>
		<circle class="st2" cx="199" cy="146.04" r="2.53"/>
	</g>
</g>
<g id="CROSS">
	<g>
		<g>
			<line class="st3" x1="97.44" y1="193.1" x2="110.45" y2="206.11"/>
			<line class="st3" x1="110.45" y1="193.1" x2="97.44" y2="206.11"/>
		</g>
		<g>
			<line class="st3" x1="238.19" y1="45.6" x2="247.71" y2="55.12"/>
			<line class="st3" x1="247.71" y1="45.6" x2="238.19" y2="55.12"/>
		</g>
		<g>
			<line class="st3" x1="478.88" y1="180.08" x2="484.58" y2="185.78"/>
			<line class="st3" x1="484.58" y1="180.08" x2="478.88" y2="185.78"/>
		</g>
		<g>
			<line class="st4" x1="447.96" y1="362.43" x2="460.97" y2="375.44"/>
			<line class="st4" x1="460.97" y1="362.43" x2="447.96" y2="375.44"/>
		</g>
		<g>
			<line class="st3" x1="163.32" y1="351.21" x2="172.18" y2="360.08"/>
			<line class="st3" x1="172.18" y1="351.21" x2="163.32" y2="360.08"/>
		</g>
	</g>
</g>
<g id="RIGHT_LEG">
	<g>
		<g>
			<polygon class="st5" points="162.48,520.02 157.63,517.32 162.15,500.35 162.84,518.42 			"/>
			<path class="st1" d="M169.58,514.3l-7.1,5.71l-0.31-13.43l-4.79,16.67c0,0-10.96,12.51-22.69,13.9
				c-11.73,1.4-14.2-6.95-14.2-6.95s-0.39-2.9,0.24-6.43c0.5-2.78,1.63-5.94,4.08-8.39c5.56-5.55,19.14-24.85,22.08-30.1
				c2.93-5.25,5.89-13.38,15.13-11.11c6.91,1.69,6.47,9.38,7.28,18.24C170.27,503.02,169.58,514.3,169.58,514.3z"/>
			<path class="st5" d="M169.58,514.3l-7.1,5.71l-0.31-13.43l-4.79,16.67c0,0-10.96,12.51-22.69,13.9
				c-11.73,1.4-14.2-6.95-14.2-6.95s-0.39-2.9,0.24-6.43c1.07,5.12,5.29,9.29,14.21,8.48c10.19-0.93,20.21-11.69,20.21-11.69
				l6.94-21.77l7.21-6.39C170.27,503.02,169.58,514.3,169.58,514.3z"/>
		</g>
		<path class="st5" d="M158.5,463.01l-4.73,14.18c0,0-0.37,5.36,5.37,6.53c5.73,1.17,7.08-3.1,7.08-3.1l6.53-13.39L158.5,463.01z"/>
		<g>
			<path class="st5" d="M162.94,438.97l-9.73,20.84c0,0,1.08,10.03,10.03,12.97s18.53-0.93,18.53-0.93l13.28-18.68
				C195.05,453.17,193.04,431.09,162.94,438.97z"/>
			<g>
				<path class="st2" d="M241.52,266.52l-75.34,175.69c0,0,2.93,15.59,24.39,10.65l101.66-157.62v-24.14
					c0-14.03-11.38-25.41-25.41-25.41h0c-10.84,0-20.49,6.88-24.03,17.14L241.52,266.52z"/>
				
					<ellipse transform="matrix(0.3603 -0.9328 0.9328 0.3603 -215.5088 435.9887)" class="st6" cx="210.14" cy="375.13" rx="14.82" ry="11.23"/>
				<line class="st7" x1="286.29" y1="294.62" x2="188.41" y2="447.77"/>
			</g>
		</g>
	</g>
</g>
<g id="LEFT_LEG">
	<g>
		<g>
			<polygon class="st5" points="421.99,520.02 426.84,517.32 422.32,500.35 421.63,518.42 			"/>
			<path class="st1" d="M414.89,514.3l7.1,5.71l0.31-13.43l4.79,16.67c0,0,10.96,12.51,22.69,13.9c11.73,1.4,14.2-6.95,14.2-6.95
				s0.39-2.9-0.24-6.43c-0.5-2.78-1.63-5.94-4.08-8.39c-5.56-5.55-19.14-24.85-22.08-30.1c-2.93-5.25-5.89-13.38-15.13-11.11
				c-6.91,1.69-6.47,9.38-7.28,18.24C414.2,503.02,414.89,514.3,414.89,514.3z"/>
			<path class="st5" d="M414.89,514.3l7.1,5.71l0.31-13.43l4.79,16.67c0,0,10.96,12.51,22.69,13.9c11.73,1.4,14.2-6.95,14.2-6.95
				s0.39-2.9-0.24-6.43c-1.07,5.12-5.29,9.29-14.21,8.48c-10.19-0.93-20.21-11.69-20.21-11.69l-6.94-21.77l-7.21-6.39
				C414.2,503.02,414.89,514.3,414.89,514.3z"/>
		</g>
		<path class="st5" d="M425.97,463.01l4.73,14.18c0,0,0.37,5.36-5.37,6.53c-5.73,1.17-7.08-3.1-7.08-3.1l-6.53-13.39L425.97,463.01z
			"/>
		<g>
			<path class="st5" d="M421.53,438.97l9.73,20.84c0,0-1.08,10.03-10.03,12.97c-8.95,2.93-18.53-0.93-18.53-0.93l-13.28-18.68
				C389.42,453.17,391.42,431.09,421.53,438.97z"/>
			<g>
				<path class="st2" d="M342.95,266.52l75.34,175.69c0,0-2.93,15.59-24.39,10.65L292.23,295.24v-24.14
					c0-14.03,11.38-25.41,25.41-25.41h0c10.84,0,20.49,6.88,24.03,17.14L342.95,266.52z"/>
				
					<ellipse transform="matrix(0.9328 -0.3603 0.3603 0.9328 -110.0231 160.0759)" class="st6" cx="374.33" cy="375.13" rx="11.23" ry="14.82"/>
				<line class="st7" x1="298.18" y1="294.62" x2="396.06" y2="447.77"/>
			</g>
		</g>
	</g>
</g>
<g id="HAIR">
	<g>
		<path class="st8" d="M295.35,83.85c6.74,4.02,4.12,11.38,2.88,15.8c-1.24,4.43,4.26,15.01-2.49,20.51
			c-6.75,5.5,10.91,17.39-4.75,37.34c-12.06,15.37-39.63,12.15-39.08-1.64c0.55-13.79,19.9-24.52,20.25-37.14
			c0.22-8.03-2.33-23.23,6.53-33.44C284.09,79.04,291.69,81.67,295.35,83.85z"/>
		<circle class="st6" cx="289.93" cy="90.93" r="4.32"/>
	</g>
</g>
<g id="BODY">
	<g>
		<g>
			<path class="st1" d="M353.43,279.89c-36.21,12.26-84.13,11.84-121.87-0.68l21.68-75.87l2.14-53.39c0,0,22.86-14.97,41.09-14.97
				c13.74,0,36.21,0.18,36.21,0.18l1.86,22.86c0,0,6.18,17.06,6.18,23.49c0,6.43-10.97,21.18-10.97,21.18
				S344.57,258.45,353.43,279.89z"/>
			<path class="st9" d="M239.53,274.65c38.1,10.11,69.77,9.68,104.7,0"/>
		</g>
		<g>
			<g>
				<path class="st0" d="M301.62,143.78c0,0-1.69,2.95-6.33,3.91c0,0-4.56-1.37-6.33-3.91l0.92-16.77l3.14,0.66l7.64,1.6l0.81,12.06
					L301.62,143.78z"/>
			</g>
			<path class="st8" d="M301.46,141.34c-9.15-0.9-9.92-12.57-9.92-12.57c0.49-0.41,0.98-0.78,1.47-1.1l7.64,1.6L301.46,141.34z"/>
		</g>
	</g>
</g>
<g id="LEFT_UPPER_ARM">
	<g>
		<path class="st0" d="M324.18,199.03c-6.75-27.2-14.91-71.41,13.75-61.68c8.6,2.92,15.93,31.32,19,57.24
			c1.57,13.29,2.02,25.91,0.96,34.13c-0.67,5.18-4.86,9.34-10.07,9.52c-8.28,0.29-15.3-6.88-19.12-19.42
			C328.69,218.82,327.11,210.83,324.18,199.03z"/>
		<g>
			<path class="st10" d="M322.84,198.28l36.82-3.99c-3.07-25.92-11.38-53.07-21.73-56.94C309.58,126.76,316.09,171.08,322.84,198.28
				z"/>
			<path class="st9" d="M332.3,135.89c-20.11-2.58-16.49,31.27-10.89,56.34"/>
			<line class="st9" x1="357.63" y1="190.17" x2="325.18" y2="193.5"/>
		</g>
	</g>
</g>
<g id="LEFT_ARM">
	<g>
		<g>
			<path class="st6" d="M286.21,287.46c1.53-1.07,14.54-4.24,14.54-4.24l24.92-50.72c7.07-18.55,25.05-25.57,32.63-8
				c0.16,0.64-0.33,5.09-0.44,5.6c-3.4,15.5-47.58,61.56-47.58,61.56s-0.14,15.02-6.72,15.65c-6.57,0.63-12.15-2.47-12.15-2.47
				c-4.16-2.43-3.93-4.86-4.73-8.16C284.98,296.61,284.68,288.53,286.21,287.46z"/>
		</g>
		<g>
			<path class="st0" d="M358.3,224.5c0.16,0.64-0.33,5.09-0.44,5.6c-3.4,15.5-47.58,61.56-47.58,61.56s-0.14,15.02-6.72,15.65
				c-6.57,0.63-12.15-2.47-12.15-2.47c-4.16-2.43-3.93-4.86-4.73-8.16c-1.69-0.08-2-8.16-0.47-9.22c1.53-1.07,14.54-4.24,14.54-4.24
				l24.92-50.72c1.28-3.34,2.9-6.31,4.76-8.83"/>
		</g>
	</g>
</g>
<g id="RIGHT_UPPER_ARM">
	<g>
		<path class="st0" d="M266.34,212.18c7.97-26.87,18.1-70.67-10.97-62.24c-8.73,2.53-17.32,30.57-21.55,56.32
			c-2.17,13.21-3.19,25.8-2.49,34.05c0.44,5.2,4.43,9.55,9.64,9.97c8.26,0.66,15.59-6.19,19.98-18.54
			C260.95,231.74,262.88,223.83,266.34,212.18z"/>
		<g>
			<path class="st10" d="M267.71,211.49l-36.6-5.64c4.23-25.76,13.76-52.51,24.27-55.91C284.17,140.63,275.67,184.62,267.71,211.49z
				"/>
			<path class="st9" d="M261.06,148.73c20.2-1.68,15.07,31.98,8.35,56.78"/>
			<line class="st9" x1="233.32" y1="201.82" x2="265.58" y2="206.6"/>
		</g>
	</g>
</g>
<g id="RIGHT_ARM">
	<g>
		<g>
			<path class="st6" d="M304.44,297.6c-1.55-1.04-14.63-3.95-14.63-3.95l-25.93-50.21c-7.44-18.41-25.55-25.06-32.78-7.34
				c-0.15,0.65,0.43,5.08,0.55,5.59c3.71,15.43,48.8,60.6,48.8,60.6s0.44,15.02,7.03,15.51c6.58,0.5,12.1-2.71,12.1-2.71
				c4.11-2.51,3.83-4.94,4.57-8.26C305.85,306.72,305.99,298.63,304.44,297.6z"/>
		</g>
		<g>
			<path class="st0" d="M231.11,236.09c-0.15,0.65,0.43,5.08,0.55,5.59c3.71,15.43,48.8,60.6,48.8,60.6s0.44,15.02,7.03,15.51
				c6.58,0.5,12.1-2.71,12.1-2.71c4.11-2.51,3.83-4.94,4.57-8.26c1.69-0.11,1.83-8.19,0.28-9.23c-1.55-1.04-14.63-3.95-14.63-3.95
				l-25.93-50.21c-1.34-3.32-3.03-6.26-4.94-8.74"/>
		</g>
	</g>
</g>
<g id="HEAD">
	<g>
		<g>
			<g>
				<path class="st0" d="M310.45,117.3c0,0,3.62-5.38,7.51-3.55c3.89,1.83,2.58,14.8-7,13.03L310.45,117.3z"/>
			</g>
			<g>
				<path class="st0" d="M285.11,117.3c0,0-3.62-5.38-7.51-3.55c-3.89,1.83-2.03,15.19,8.81,13.03L285.11,117.3z"/>
			</g>
			<g>
				<g>
					<g>
						<g>
							<path class="st6" d="M312.89,119.43c-0.44,8.03-4.94,17.29-14.64,17.03c-7.14-0.19-14.1-8.78-14.7-19.62
								s1.29-20.12,14.33-19.47c1.16,0.06,3.11,0.32,4.15,0.55c7.56,1.67,10.45,2.35,11.01,17.23
								C313.08,116.46,312.98,117.92,312.89,119.43z"/>
						</g>
					</g>
				</g>
				<g>
					<g>
						<g>
							<path class="st9" d="M312.89,119.43c-0.44,8.03-4.94,17.29-14.64,17.03c-7.14-0.19-14.1-8.78-14.7-19.62
								s1.29-20.12,14.33-19.47c1.16,0.06,3.11,0.32,4.15,0.55c7.56,1.67,10.45,2.35,11.01,17.23
								C313.08,116.46,312.98,117.92,312.89,119.43z"/>
						</g>
					</g>
				</g>
			</g>
			<path class="st8" d="M283.85,116.9c3.33-0.85,5.53-4.82,5.91-7.17c0.14-0.93,0.23-2.18,0.5-3.32c5.47,5.73,11.9,7.67,16.48,8.64
				c5.01,1.07,7.39-0.66,8.5-1.68c6.31-5.81,3.64-20.63-6.43-20.34c-11.43-7.91-28.41-1.92-30.31,7.74
				C276.38,111.47,280.82,115.63,283.85,116.9z"/>
		</g>
	</g>
</g>
<g id="UNPLUG">
	<g>
		<g>
			<path class="st0" d="M301.42,345.62h-10.65c-0.85,0-1.65-0.87-1.55-1.75l3.91-34.39c0.29-2.58,1.33-4.42,2.58-4.42h0.77
				c1.25,0,2.29,1.84,2.58,4.42l3.91,34.39C303.07,344.75,302.27,345.62,301.42,345.62z"/>
		</g>
		<g>
			<g>
				<path class="st0" d="M316.33,388.19C316.33,388.18,316.33,388.18,316.33,388.19l5.96-12.1h-9.79l-4.17-11.61
					c-0.27-0.76-0.99-1.26-1.8-1.26h-20.88c-0.81,0-1.53,0.51-1.8,1.26l-4.17,11.61h-9.79l5.95,12.09c0,0,0,0.01,0,0.01l0.04,0.09
					l0,0c0.3,0.64,0.94,1.11,1.72,1.11h36.94c0.79,0,1.42-0.47,1.72-1.11l0,0L316.33,388.19z"/>
				<g>
					<path class="st0" d="M320.08,377.43H272.1c-1.72,0-2.92-1.71-2.34-3.32l10.43-29.04c0.35-0.98,1.29-1.64,2.34-1.64h27.13
						c1.05,0,1.98,0.66,2.34,1.64l10.43,29.04C323,375.72,321.8,377.43,320.08,377.43z"/>
				</g>
			</g>
			<g>
				<path class="st0" d="M305.03,399.64C305.03,399.63,305.03,399.63,305.03,399.64l2.63-5.34h-4.32l-1.84-5.13
					c-0.12-0.33-0.44-0.56-0.79-0.56h-9.22c-0.36,0-0.67,0.22-0.79,0.56l-1.84,5.13h-4.32l2.63,5.34c0,0,0,0,0,0l0.02,0.04l0,0
					c0.13,0.28,0.41,0.49,0.76,0.49h16.31c0.35,0,0.63-0.21,0.76-0.49l0,0L305.03,399.64z"/>
				<g>
					<path class="st0" d="M306.69,394.88h-21.2c-0.76,0-1.29-0.75-1.03-1.47l4.61-12.82c0.16-0.43,0.57-0.73,1.03-0.73h11.98
						c0.46,0,0.88,0.29,1.03,0.73l4.61,12.82C307.98,394.13,307.45,394.88,306.69,394.88z"/>
				</g>
			</g>
		</g>
	</g>
</g>
<g id="PHONE">
	<g>
		<path class="st2" d="M381.3,497.4l-15.26-1.21l-22.92-63.77c-1.04-2.91-3.81-4.86-6.91-4.86h-80.26c-3.1,0-5.86,1.94-6.91,4.86
			l-22.92,63.77l-15.26,1.21l7.05,25c0.72,3.2,3.55,5.76,7.17,5.76h141.99c3.62,0,6.45-2.56,7.17-5.76L381.3,497.4z"/>
		<path class="st1" d="M373.56,503.32H218.62c-5.55,0-9.42-5.51-7.55-10.73l33.69-93.75c1.14-3.18,4.16-5.3,7.54-5.3h87.58
			c3.38,0,6.4,2.12,7.54,5.3l33.69,93.75C382.98,497.81,379.11,503.32,373.56,503.32z"/>
		<path class="st0" d="M374.76,494.33c-0.27,0.38-1.04,1.26-2.43,1.26h-44.56c-2.69,0-5.13-1.58-6.23-4.03l-0.83-1.85
			c-0.67-1.48-2.14-2.43-3.76-2.43h-41.72c-1.62,0-3.09,0.95-3.76,2.43l-0.83,1.85c-1.1,2.45-3.54,4.03-6.23,4.03h-44.56
			c-1.39,0-2.16-0.88-2.43-1.26c-0.27-0.38-0.84-1.4-0.37-2.72l33.15-92.25c0.43-1.18,1.55-1.96,2.79-1.96h86.2
			c1.24,0,2.36,0.78,2.78,1.95l33.16,92.27C375.6,492.93,375.03,493.95,374.76,494.33z"/>
		<g>
			<g>
				<polygon class="st1" points="281.5,420.66 269.14,420.66 266.03,431.75 279.93,431.75 				"/>
				<polygon class="st1" points="286.68,438.4 301.5,438.4 300.27,420.66 287.91,420.66 				"/>
				<polygon class="st1" points="326.15,446.01 319.04,420.66 306.68,420.66 310.27,446.01 				"/>
			</g>
			<polygon class="st2" points="299.07,472.34 307.94,464.65 299.07,458.13 306.64,452.23 298.16,446.54 290.57,451.89 
				283.28,446.53 274.45,452.23 281.69,458.14 272.44,464.66 280.84,472.34 290.17,465.07 			"/>
		</g>
	</g>
</g>
</svg>
