<svg id="Layer_1" data-name="Layer 1" xmlns="http://www.w3.org/2000/svg" viewBox="0 0 1600 1400"><defs><style>.cls-1{fill:#87bfc1;}.cls-2{fill:#262424;}.cls-3{fill:#fff;}.cls-4{fill:#dd9144;}.cls-5{fill:#272525;}.cls-6{fill:#86bec0;}.cls-7{fill:#dc9044;}</style></defs><title>Google Ads</title><rect class="cls-1" x="876.98" y="194.04" width="554" height="1048" rx="61.78" ry="61.78"/><rect class="cls-2" x="1106.32" y="235.04" width="96.67" height="18" rx="9" ry="9"/><path class="cls-3" d="M1390,255.82v924.44A20.78,20.78,0,0,1,1369.2,1201H938.76A20.78,20.78,0,0,1,918,1180.26V255.82A20.78,20.78,0,0,1,938.76,235h126.39a16.16,16.16,0,0,1,16.16,16.16h0a16.16,16.16,0,0,0,16.16,16.16h113a16.16,16.16,0,0,0,16.16-16.16h0A16.16,16.16,0,0,1,1242.82,235H1369.2A20.78,20.78,0,0,1,1390,255.82Z"/><path class="cls-2" d="M1369.21,1203.51H938.76a23.27,23.27,0,0,1-23.25-23.25V255.82a23.27,23.27,0,0,1,23.25-23.25h126.39a18.65,18.65,0,0,1,18.63,18.63,13.71,13.71,0,0,0,13.7,13.7h113a13.71,13.71,0,0,0,13.7-13.7,18.65,18.65,0,0,1,18.63-18.63h126.38a23.27,23.27,0,0,1,23.25,23.25v924.44A23.27,23.27,0,0,1,1369.21,1203.51Zm-430.44-966a18.33,18.33,0,0,0-18.31,18.31v924.44a18.33,18.33,0,0,0,18.31,18.31h430.44a18.33,18.33,0,0,0,18.31-18.31V255.82a18.33,18.33,0,0,0-18.31-18.31H1242.82a13.71,13.71,0,0,0-13.7,13.7,18.65,18.65,0,0,1-18.63,18.63h-113a18.65,18.65,0,0,1-18.63-18.63,13.71,13.71,0,0,0-13.7-13.7H938.76Z"/><rect class="cls-1" x="984.57" y="1012.48" width="338.83" height="125.28" rx="62.64" ry="62.64"/><rect class="cls-1" x="946.98" y="397.04" width="414" height="153" rx="76.5" ry="76.5"/><rect class="cls-3" x="1261.98" y="416.79" width="37.25" height="70.1" rx="18.63" ry="18.63"/><path class="cls-3" d="M1314.86,468.26a5.21,5.21,0,1,0-10.41,0,23.83,23.83,0,1,1-47.67,0,5.21,5.21,0,0,0-10.41,0,34.3,34.3,0,0,0,29,33.85v15h-8.88a5.21,5.21,0,0,0-5.21,5.21h0a5.21,5.21,0,0,0,5.21,5.21h28.17a5.21,5.21,0,0,0,5.21-5.21h0a5.21,5.21,0,0,0-5.21-5.21h-8.88v-15A34.3,34.3,0,0,0,1314.86,468.26Z"/><rect class="cls-4" x="814.98" y="621.04" width="678" height="320" rx="46" ry="46"/><rect class="cls-3" x="890.98" y="699.24" width="302" height="53.33" rx="26.67" ry="26.67"/><rect class="cls-3" x="890.98" y="809.5" width="302" height="53.33" rx="26.67" ry="26.67"/><path class="cls-3" d="M1360.13,690.83a38.34,38.34,0,0,0-52.4,14l-65.8,114c-17,29.41,10.23,65.05,43.15,56.23a38.11,38.11,0,0,0,23.29-17.87l65.8-114a38.4,38.4,0,0,0-14-52.4h0Z"/><path class="cls-3" d="M1312.2,828.09a38.34,38.34,0,0,0-47-27.12c-32.93,8.82-38.65,53.3-9.25,70.27s65.1-10,56.23-43.15h0Z"/><path class="cls-5" d="M1275.13,877a38.71,38.71,0,0,1-19.41-5.29,38.86,38.86,0,0,1,38.86-67.31,38.61,38.61,0,0,1,18.1,23.6,38.17,38.17,0,0,1-13.87,40.79A38.8,38.8,0,0,1,1275.13,877Zm0.1-76.82a38.1,38.1,0,0,0-9.87,1.31,37.81,37.81,0,1,0,46.37,26.77h0A37.88,37.88,0,0,0,1275.23,800.14Z"/><path class="cls-1" d="M1440.78,818.83l-65.8-114A38.11,38.11,0,0,0,1351.69,687c-32.93-8.82-60.12,26.83-43.15,56.23l65.8,114a38.36,38.36,0,1,0,66.44-38.36h0Z"/><path class="cls-1" d="M1312.2,828.09a38.34,38.34,0,0,0-47-27.12c-32.93,8.82-38.65,53.3-9.25,70.27s65.1-10,56.23-43.15h0Z"/><path class="cls-1" d="M800.13,241.15a13.59,13.59,0,0,1-7.46,21.7,1.55,1.55,0,0,0-.88,2.48l14.83,18.53a4.63,4.63,0,0,1-.72,6.51l-18.78,15a1.55,1.55,0,0,1-2.49-.92,13.58,13.58,0,1,0-18.73,15,1.55,1.55,0,0,1,.35,2.63l-18.1,14.48a4.63,4.63,0,0,1-6.51-.72L726.51,317a1.55,1.55,0,0,1,.95-2.49,13.58,13.58,0,1,0-14.8-18.5,1.55,1.55,0,0,1-2.64.38l-14.58-18.23a4.63,4.63,0,0,1,.72-6.51L714,257.3a1.55,1.55,0,0,0-.32-2.62,13.58,13.58,0,1,1,19.17-15.33,1.55,1.55,0,0,0,2.48.88l18.54-14.83a4.63,4.63,0,0,1,6.51.72L774.71,244a1.55,1.55,0,0,0,2.61-.31A13.59,13.59,0,0,1,800.13,241.15Z"/><path class="cls-4" d="M712.21,1092.37a16.26,16.26,0,0,0,15.56,23.35,1.85,1.85,0,0,1,1.77,2.66l-12.69,26a5.55,5.55,0,0,1-7.42,2.56l-24.94-12.15a1.85,1.85,0,0,1-.29-3.16,16.3,16.3,0,1,0-25.9-12.62,1.85,1.85,0,0,1-2.66,1.73l-24.94-12.15a5.54,5.54,0,0,1-2.56-7.42l12.69-26a1.85,1.85,0,0,1,3.18-.25,16.26,16.26,0,1,0,12.42-25.49,1.85,1.85,0,0,1-1.76-2.66l12.23-25.12a5.55,5.55,0,0,1,7.42-2.56l24.62,12a1.86,1.86,0,0,0,2.67-1.68,16.31,16.31,0,1,1,26.51,12.91,1.86,1.86,0,0,0,.32,3.14l24.62,12a5.55,5.55,0,0,1,2.56,7.42L743.37,1090a1.85,1.85,0,0,1-3.18.25A16.26,16.26,0,0,0,712.21,1092.37Z"/><polygon class="cls-3" points="507.96 999.25 484.64 1058.38 506.43 1071.66 541.66 1012.14 507.96 999.25"/><path class="cls-2" d="M506.43,1073.67a2,2,0,0,1-1-.29l-21.79-13.28a2,2,0,0,1-.83-2.46l23.32-59.13a2,2,0,0,1,2.6-1.14l33.7,12.88a2,2,0,0,1,1,2.91l-35.24,59.52A2,2,0,0,1,506.43,1073.67Zm-19.29-16.13,18.6,11.33,33-55.71-29.61-11.32Z"/><path class="cls-1" d="M434.67,1051.12l69.27,167.72a113.9,113.9,0,0,0,15.12-7.2c11.35-6.91,12.12-14.05,11.81-32.91-0.42-25.09,5.88-122.13,5.88-122.13l-53.46-25.14-33.12,13.4Z"/><path class="cls-3" d="M434.67,1051.12l69.27,167.72a113.9,113.9,0,0,0,15.12-7.2l-68.89-166.78Z"/><path class="cls-2" d="M503.94,1220.85a2,2,0,0,1-1.86-1.25L432.8,1051.89a2,2,0,0,1,1.11-2.64l15.5-6.27a2,2,0,0,1,2.62,1.1l68.89,166.78a2,2,0,0,1-.82,2.49,113.23,113.23,0,0,1-15.39,7.34A2,2,0,0,1,503.94,1220.85Zm-66.63-168.62,67.73,164a114,114,0,0,0,11.49-5.42l-67.45-163.31Z"/><path class="cls-1" d="M368.59,596.83c-3.25,51.2-1.31,105,8.42,121S545.48,863.54,545.48,863.54l-38.9,131.27,51.93,27.85S601.7,939,622.89,896.58c10.25-20.54,18.07-36.89,18.7-40.22,0.81-4.29-6.75-18.87-18.84-38.71-39.84-65.47-128.87-188.3-128.87-188.3C490.1,495.61,371.85,545.63,368.59,596.83Z"/><path class="cls-2" d="M401.58,659.25a2,2,0,0,1-.82-3.86l9.6-4.27a21,21,0,0,0,12.4-17.52l2.76-34.72a2,2,0,0,1,4,.32l-2.76,34.72A25,25,0,0,1,412,654.8l-9.6,4.27A2,2,0,0,1,401.58,659.25Z"/><path class="cls-2" d="M526.83,992a2,2,0,0,1-1.9-2.69l47.78-134L410.51,682.58a39.24,39.24,0,0,1-10.69-29.44l3.49-54.88a2,2,0,0,1,4,.26l-3.49,54.88a35.2,35.2,0,0,0,9.6,26.41L576.5,853.4a2,2,0,0,1,.43,2.06L528.73,990.65A2,2,0,0,1,526.83,992Z"/><path class="cls-2" d="M549.11,864.77a2,2,0,0,1-.59-3.94l41.16-12.66a2,2,0,0,1,1.19,3.85l-41.16,12.66A2,2,0,0,1,549.11,864.77Z"/><path class="cls-3" d="M597.71,854.59c-1.25,19.64,9.57,36.82,25.18,42,10.25-20.54,18.07-36.89,18.7-40.22,0.81-4.29-6.75-18.87-18.84-38.71C609.14,822.8,598.82,837.14,597.71,854.59Z"/><path class="cls-4" d="M584.18,992.1l-69.49-33.69a4,4,0,0,0-5.54,2.25l-15.34,42.19a4,4,0,0,0,2.1,5l63,29a4,4,0,0,0,5.16-1.63l21.82-37.48A4,4,0,0,0,584.18,992.1Z"/><polygon class="cls-3" points="231.53 1002.64 183.31 1044.05 196.38 1065.96 255.32 1029.77 231.53 1002.64"/><path class="cls-2" d="M196.38,1068a2,2,0,0,1-1.73-1l-13.07-21.91a2,2,0,0,1,.42-2.56l48.22-41.4a2,2,0,0,1,2.83.2l23.79,27.13a2,2,0,0,1-.46,3l-58.95,36.19A2,2,0,0,1,196.38,1068Zm-10.47-23.5,11.16,18.7,55.17-33.87-20.9-23.83Z"/><path class="cls-1" d="M142.5,1014.3l-17,180.66a113.9,113.9,0,0,0,16.73.68c13.26-.81,17.28-6.77,25.8-23.59,11.34-22.39,62.21-105.27,62.21-105.27l-35.54-47.18L159.14,1016Z"/><path class="cls-3" d="M142.5,1014.3l-17,180.66a113.9,113.9,0,0,0,16.73.68L159.14,1016Z"/><path class="cls-2" d="M138.75,1197.76c-3.51,0-7.76-.25-13.46-0.79a2,2,0,0,1-1.82-2.2l17-180.66a2,2,0,0,1,2.21-1.82l16.64,1.69a2,2,0,0,1,1.8,2.2l-16.93,179.65a2,2,0,0,1-1.89,1.82C141.22,1197.72,140,1197.76,138.75,1197.76Zm-11.07-4.62a114.27,114.27,0,0,0,12.69.57l16.57-175.91-12.62-1.28Z"/><path class="cls-1" d="M296.12,581.69c-26.77,43.76-50.18,92.27-49,110.93s81,207.52,81,207.52l-95.68,97.94,32.93,48.87s77.23-53.81,115.79-81.47c18.65-13.38,33.2-24.19,35.31-26.85,2.72-3.42,2.84-19.84,1.41-43-4.68-76.5-26.08-226.68-26.08-226.68C450.82,548.89,322.89,537.93,296.12,581.69Z"/><path class="cls-2" d="M400.41,735.13a2,2,0,0,1-2-1.76c-4.75-36.63-8.63-63.89-8.67-64.16a2,2,0,0,1,.19-1.17,168.51,168.51,0,0,0,11.58-29.81,2,2,0,1,1,3.89,1.06,171.67,171.67,0,0,1-11.58,30c0.6,4.25,4.23,30,8.59,63.6a2,2,0,0,1-1.74,2.26Z"/><path class="cls-2" d="M309.13,653.28q-0.84,0-1.69-.06L297,652.52a2,2,0,0,1,.27-4l10.49,0.71a21,21,0,0,0,19.14-9.71l18.65-29.42a2,2,0,0,1,3.41,2.16l-18.65,29.42A25,25,0,0,1,309.13,653.28Z"/><path class="cls-2" d="M252.56,1005.26a2,2,0,0,1-1.36-3.5L356,905.52,293.15,677.1a39.24,39.24,0,0,1,4.29-31l28.7-46.91a2,2,0,1,1,3.44,2.1l-28.7,46.91A35.2,35.2,0,0,0,297,676l63.18,229.63a2,2,0,0,1-.58,2l-105.72,97.06A2,2,0,0,1,252.56,1005.26Z"/><path class="cls-2" d="M374,911.16a2,2,0,0,1-.38,0l-42.31-8a2,2,0,1,1,.75-4l42.31,8A2,2,0,0,1,374,911.16Z"/><path class="cls-3" d="M378.43,916.6c-10.27,16.78-8.73,37,2.67,48.88,18.65-13.38,33.2-24.19,35.31-26.85,2.72-3.42,2.84-19.84,1.41-43C403.37,893.82,387.56,901.68,378.43,916.6Z"/><path class="cls-4" d="M302.28,1031.89l-45.73-62.23a4,4,0,0,0-5.94-.6l-33.26,30.16a4,4,0,0,0-.49,5.43l42.2,55a4,4,0,0,0,5.32,1l36.79-23A4,4,0,0,0,302.28,1031.89Z"/><path class="cls-4" d="M604,358a102.53,102.53,0,0,1,32.33,40.67c11.33,26.33,40,135,40,135L588.48,551S567,458.71,558,411,577.65,343,604,358Z"/><path class="cls-2" d="M594.65,532.51a2.47,2.47,0,0,1-.51-4.88l70-15a2.47,2.47,0,0,1,1,4.83l-70,15A2.49,2.49,0,0,1,594.65,532.51Z"/><path class="cls-4" d="M530.48,322.54c-60.25-6.26-117,16.5-117,16.5S355,486.54,339,513.54s-77,99-77,99,54,82,164.5,90,135-23,135-23L581,527s22.5-25,28.5-38.5S620,394,604,358C604,358,561,325.71,530.48,322.54Z"/><path class="cls-2" d="M587.52,522a2.47,2.47,0,0,1-1.89-4.06c6.4-7.6,17.73-21.65,21.6-30.36,4.82-10.84,9.35-73.17-.56-113.52a2.47,2.47,0,0,1,4.79-1.18c9.59,39,6,103.85.28,116.7-3.91,8.8-14.3,22-22.33,31.54A2.46,2.46,0,0,1,587.52,522Z"/><path class="cls-1" d="M528.38,317.95c-28.8,3.45-41.22,44.14-6,62.61,0,0,8.58-17.9,13.92-17.16s5.82,18.78,5.82,18.78,21.42-7.08,24.67-30.75S549.48,315.42,528.38,317.95Z"/><path class="cls-3" d="M555,347s-3.93,7-14.62,6.58a38.36,38.36,0,0,1-20.6-21.8l22.71-45.52,7.93,5.61,19.31,13.63L557.52,340Z"/><path class="cls-2" d="M541.43,356.09l-1.12,0a2.46,2.46,0,0,1-.76-0.16,40.58,40.58,0,0,1-22-23.28,2.47,2.47,0,0,1,.11-1.94l22.71-45.52a2.47,2.47,0,0,1,3.63-.91L571.2,303.5a2.47,2.47,0,0,1,.9,2.84l-14.74,41.51a2.48,2.48,0,0,1-.17.38C557,348.55,552.67,356.09,541.43,356.09Zm-0.49-4.94c7.91,0.22,11.26-4.3,11.86-5.2l14-39.5L543.45,290l-20.94,42A36.12,36.12,0,0,0,540.94,351.15ZM555,347h0Z"/><path class="cls-2" d="M557.52,340c-24.35-13.5-12.47-46.86-12.47-46.86a43.23,43.23,0,0,1,5.41-1.28l19.31,13.63Z"/><path class="cls-2" d="M460.46,684.95c-7,0-14.33-.24-22.14-0.78-50.69-3.48-89.74-24.74-113.57-42-25.83-18.66-39.48-36.25-40.05-37a2.47,2.47,0,0,1,3.91-3c0.14,0.18,13.88,17.86,39.17,36.1,23.29,16.8,61.42,37.53,110.88,40.93,80.1,5.5,113.44-20.85,113.77-21.12a2.47,2.47,0,0,1,3.12,3.83C554.28,663,526.49,684.95,460.46,684.95Z"/><path class="cls-3" d="M773.15,610a42,42,0,0,1-59.92,38,4.81,4.81,0,0,0-6.92,4.29v73.38A14.33,14.33,0,0,1,692,740H617.63a4.78,4.78,0,0,1-4.23-7,42,42,0,1,0-74.18,0,4.78,4.78,0,0,1-4.23,7H463.31A14.33,14.33,0,0,1,449,725.71V650.86a4.78,4.78,0,0,1,7.11-4.19,42,42,0,1,0,0-73.27,4.78,4.78,0,0,1-7.11-4.19V497a14.33,14.33,0,0,1,14.33-14.33h70.75a4.8,4.8,0,0,0,4.29-6.92,42,42,0,1,1,75.91,0,4.8,4.8,0,0,0,4.3,6.9H692A14.33,14.33,0,0,1,706.31,497v70.71a4.81,4.81,0,0,0,6.92,4.29A42,42,0,0,1,773.15,610Z"/><path class="cls-2" d="M692,742.51H617.63a7.25,7.25,0,0,1-6.4-10.66,39.53,39.53,0,1,0-69.82,0A7.25,7.25,0,0,1,535,742.51H463.31a16.82,16.82,0,0,1-16.8-16.8V650.86a7.25,7.25,0,0,1,10.78-6.34,39.53,39.53,0,1,0,0-69,7.25,7.25,0,0,1-10.78-6.34V497a16.82,16.82,0,0,1,16.8-16.8h70.75a2.25,2.25,0,0,0,1.94-1.06,2.38,2.38,0,0,0,.13-2.34,44.47,44.47,0,1,1,80.37,0,2.35,2.35,0,0,0,.13,2.31,2.25,2.25,0,0,0,1.94,1.06H692a16.82,16.82,0,0,1,16.8,16.8v70.71a2.25,2.25,0,0,0,1.06,1.93,2.38,2.38,0,0,0,2.34.13,44.07,44.07,0,0,1,19-4.24,44.47,44.47,0,0,1,0,88.93,44.07,44.07,0,0,1-19-4.24,2.38,2.38,0,0,0-2.34.13,2.25,2.25,0,0,0-1.06,1.93v73.38A16.82,16.82,0,0,1,692,742.51ZM576.3,668.82q0.87,0,1.75,0a44.48,44.48,0,0,1,37.54,65.31,2.32,2.32,0,0,0,2,3.41H692a11.88,11.88,0,0,0,11.86-11.86V652.33a7.18,7.18,0,0,1,3.35-6.1,7.32,7.32,0,0,1,7.09-.42,39.18,39.18,0,0,0,16.87,3.77,39.53,39.53,0,0,0,0-79.07,39.17,39.17,0,0,0-16.87,3.77,7.33,7.33,0,0,1-7.09-.42,7.18,7.18,0,0,1-3.35-6.1V497A11.88,11.88,0,0,0,692,485.18H618.56a7.19,7.19,0,0,1-6.11-3.36,7.29,7.29,0,0,1-.41-7.07,39.53,39.53,0,1,0-71.45,0,7.32,7.32,0,0,1-.41,7.09,7.18,7.18,0,0,1-6.11,3.36H463.31A11.88,11.88,0,0,0,451.45,497v72.18a2.3,2.3,0,0,0,1.16,2,2.25,2.25,0,0,0,2.27,0,44.47,44.47,0,1,1,0,77.57,2.24,2.24,0,0,0-2.27,0,2.3,2.3,0,0,0-1.16,2v74.85a11.88,11.88,0,0,0,11.86,11.86H535a2.29,2.29,0,0,0,2-1.13,2.26,2.26,0,0,0,.06-2.26,44.55,44.55,0,0,1-5.2-20.89A44.47,44.47,0,0,1,576.3,668.82Z"/><path class="cls-3" d="M732.67,557.88c-13.19-1.18-20.34,29.76-11.59,32.81S746.55,559.12,732.67,557.88Z"/><path class="cls-2" d="M722.23,593.35a5.92,5.92,0,0,1-2-.33c-4.88-1.7-6.72-8.85-4.7-18.21,2.13-9.89,8.47-20.19,17.32-19.39h0a7.66,7.66,0,0,1,6.86,5.16c2.75,7.5-3.25,21.9-10.05,28.81C726.68,592.45,724.15,593.35,722.23,593.35Zm9.73-33c-5.34,0-9.92,7.87-11.57,15.53-1.49,6.89-.38,11.86,1.51,12.51,0.65,0.23,2.16-.27,4.28-2.43,6-6.1,10.76-18.7,8.94-23.65a2.76,2.76,0,0,0-2.67-1.94Z"/><path class="cls-3" d="M745,563c-11.95-.26-25.25,35.25,0,40s29.5-16.75,24.75-26.5S756.48,563.29,745,563Z"/><path class="cls-2" d="M751.85,606.19a39.6,39.6,0,0,1-7.32-.73c-11.41-2.15-17.48-10.58-16.23-22.57,1.1-10.6,8.4-22.32,16.55-22.32H745c13.56,0.29,22.11,5,26.91,14.89a23,23,0,0,1-2.44,22.82C766.58,602.12,761.26,606.19,751.85,606.19Zm-7-40.69c-4.42,0-10.63,8.2-11.64,17.9-0.57,5.46.26,15,12.23,17.21,9.2,1.73,16.17-.11,20.15-5.33a18.29,18.29,0,0,0,1.92-17.66c-4-8.12-10.92-11.86-22.59-12.11h-0.08Z"/><path class="cls-3" d="M321,442.54s-36,50.17-37.33,69.17,79.67,96.33,129.67,127c0,0,4.67,27.58,8.67,34.08s32.75,18,32.75,18,5.75,14.75,12.5,16,14.25-11,14.25-14.75-8.25-21-8.25-21,7.5,15,11.75,14-0.25-24.25-3.5-28.25S436,626.54,436,626.54L360,518.79l20.5-30.25Z"/><path class="cls-2" d="M468.2,709.34a7.71,7.71,0,0,1-1.42-.13c-7-1.29-12.37-12.81-13.94-16.53-6.59-2.68-29-12.13-33-18.61-3.8-6.18-7.81-28.14-8.81-33.86-23.71-14.71-55.61-40.51-83.56-67.62-14.25-13.82-47.28-47.43-46.33-61.07,1.37-19.47,36.3-68.36,37.79-70.43a2.47,2.47,0,0,1,3.51-.51l59.5,46a2.47,2.47,0,0,1,.53,3.34L363,518.76l74.73,105.95c8,5,42.41,26.49,45.69,30.52,3.48,4.28,7.26,23,5.17,29.13a4.25,4.25,0,0,1-3,3.08,4.52,4.52,0,0,1-2.75-.28A18.16,18.16,0,0,1,484,692c0,3.69-4.13,10.62-8.49,14.25A11.57,11.57,0,0,1,468.2,709.34ZM321.51,446.07c-6.74,9.63-34.28,49.86-35.4,65.81-0.55,7.79,17.05,30.23,44.84,57.18,28.08,27.24,60.14,53.12,83.66,67.54a2.47,2.47,0,0,1,1.14,1.69c1.28,7.54,5.26,28.21,8.34,33.2,2.6,4.23,20.74,12.67,31.56,17a2.47,2.47,0,0,1,1.38,1.39c2.19,5.59,6.94,13.78,10.65,14.47,1.61,0.29,3.4-.85,4.62-1.87,4-3.36,6.71-9.05,6.71-10.46,0-2-4.16-11.88-8-19.94a2.47,2.47,0,0,1,4.43-2.17c2.86,5.71,6.69,11.18,8.61,12.43,1.07-4.18-1.92-20.86-4.48-24-1.95-2.39-24.58-17.09-44.89-29.71A2.46,2.46,0,0,1,434,628L358,520.21a2.47,2.47,0,0,1,0-2.81l19.2-28.33Z"/><path class="cls-4" d="M413.48,339C378.41,345.94,306,449.37,306,449.37l73.67,54.33s51-64.67,71.67-97.67S464.32,329,413.48,339Z"/><path class="cls-2" d="M379.65,506.17a2.47,2.47,0,0,1-1.94-4c0.51-.65,51.15-64.94,71.51-97.45,10.57-16.88,13.27-36.18,6.89-49.18-4.34-8.85-12.64-14.13-24-15.25a2.47,2.47,0,1,1,.49-4.91c13.14,1.3,22.81,7.52,27.94,18,7.12,14.5,4.31,35.69-7.14,54-20.5,32.73-71.31,97.24-71.82,97.88A2.46,2.46,0,0,1,379.65,506.17Z"/><path class="cls-2" d="M392.48,489.69a2.46,2.46,0,0,1-1.45-.48L324.1,440.28a2.47,2.47,0,0,1,2.91-4l66.92,48.94A2.47,2.47,0,0,1,392.48,489.69Z"/><path class="cls-2" d="M543.9,215.21c2.49,17.69-34.2,23.06-46.64,23.37s-35.41,23-55,9.91S406,290.56,341.91,266c-49.36-18.95-63-92.8-26.92-102.36s79.28,31.91,112.19,22.75c20.94-5.83,42.84-28.76,69.84-4.07C517.16,200.72,541.93,201.25,543.9,215.21Z"/><path class="cls-3" d="M599.39,304s13.44-11.29,22.19-3.63-4.32,40.42-27.92,28.67Z"/><path class="cls-2" d="M603.6,334.08a24.78,24.78,0,0,1-11-2.79,2.47,2.47,0,0,1-1.31-2.76l5.73-25a2.46,2.46,0,0,1,.82-1.34c0.62-.52,15.18-12.55,25.41-3.6,5.94,5.19,3.88,17-1.43,24.89C617.09,330.44,610.68,334.08,603.6,334.08Zm-7.08-6.41c11.65,4.74,18.63-3.2,21.16-7,4.86-7.25,5.22-15.86,2.28-18.43-6.14-5.38-15.82,1.26-18.36,3.17Z"/><path class="cls-3" d="M547.61,219.79l-5-4.39a5.84,5.84,0,0,0-5.82-1.14,19.66,19.66,0,0,0-7.55,4.57,13.6,13.6,0,0,0-3.31,8.61,5.78,5.78,0,0,0,1.51,4.19l5.09,5.64a5.86,5.86,0,0,0,9-.42l6.84-9.17A5.86,5.86,0,0,0,547.61,219.79Z"/><path class="cls-2" d="M536.89,241.68a8.29,8.29,0,0,1-6.18-2.75l-5.09-5.64a8.2,8.2,0,0,1-2.14-6,16,16,0,0,1,4-10.17,22.23,22.23,0,0,1,8.51-5.19,8.32,8.32,0,0,1,8.27,1.61l5,4.39a8.37,8.37,0,0,1,1.17,11.22l-6.84,9.17a8.29,8.29,0,0,1-6.29,3.34h-0.39Zm1.86-25.28a3.31,3.31,0,0,0-1.11.19,17.34,17.34,0,0,0-6.59,3.95,11.15,11.15,0,0,0-2.63,7,3.3,3.3,0,0,0,.88,2.4l5.09,5.64a3.39,3.39,0,0,0,5.23-.24l6.84-9.17a3.41,3.41,0,0,0-.48-4.57h0l-5-4.39A3.41,3.41,0,0,0,538.75,216.4Z"/><path class="cls-3" d="M604.14,311.42c-7.14,20.55-23.32,42-48.37,34.05-18.42-5.82-32.54-34.06-26-62.7s18.36-51.36,51.79-39.94a85.26,85.26,0,0,1,10.37,4.52c18.43,10,25.43,13.91,15.79,53C606.86,303.83,605.5,307.54,604.14,311.42Z"/><path class="cls-2" d="M566.16,349.62a36.83,36.83,0,0,1-11.14-1.8c-18.8-5.95-34.79-34.35-27.67-65.6,3.44-15.1,9.17-33.42,23-41.15,8.48-4.73,19.24-4.93,32-.58a87.85,87.85,0,0,1,10.75,4.68c9.49,5.15,16.34,8.86,19.54,16.84,3.11,7.77,2.38,19.05-2.53,38.95-0.77,3.13-1.91,6.37-3.12,9.79l-0.52,1.48C599.8,331.42,586.06,349.62,566.16,349.62Zm-0.72-107.36a25.49,25.49,0,0,0-12.66,3.11c-9.36,5.22-15.91,17.28-20.62,37.94-6.34,27.81,7.63,54.51,24.35,59.8a32.31,32.31,0,0,0,9.76,1.59c21.81,0,32.52-25.41,35.54-34.1h0l0.52-1.49c1.17-3.31,2.27-6.43,3-9.33,9.21-37.37,3.22-40.62-14.57-50.27a83.2,83.2,0,0,0-10-4.35A47.79,47.79,0,0,0,565.44,242.26Z"/><path class="cls-2" d="M538.63,282.74a20.84,20.84,0,0,0,17.28-12.48c1.06-2.31,2.22-5.51,3.77-8.26,10,19,34.23,35.74,45,42.49a9.49,9.49,0,0,0,11.1-.52c19.46-16.26,14.26-59.59-12.15-66.36-23.82-29.11-62.84-24.12-75-.42C515.13,263.46,529.25,283.82,538.63,282.74Z"/><path class="cls-3" d="M538.07,286.45s-9.64-18.08-25.37-17.61-17,36.46,19.81,42.45Z"/><path class="cls-2" d="M532.52,313.76a2.52,2.52,0,0,1-.4,0c-23.39-3.81-33.12-19.55-32.26-32.56,0.57-8.64,5.7-14.58,12.77-14.79,17.1-.5,27.2,18.12,27.62,18.91a2.47,2.47,0,0,1-4.35,2.32h0c-0.09-.17-9.14-16.74-23.12-16.3-5.07.15-7.67,5.22-8,10.18-0.71,10.86,7.78,24.06,28.13,27.37A2.47,2.47,0,0,1,532.52,313.76Z"/><path class="cls-2" d="M196.6,318.07a2.5,2.5,0,0,1-2.5-2.5V304a2.5,2.5,0,0,1,5,0v11.58A2.5,2.5,0,0,1,196.6,318.07Z"/><path class="cls-2" d="M214.06,324H202.48a2.5,2.5,0,0,1,0-5h11.58A2.5,2.5,0,0,1,214.06,324Z"/><path class="cls-2" d="M196.6,341.41a2.5,2.5,0,0,1-2.5-2.5V327.33a2.5,2.5,0,0,1,5,0v11.58A2.5,2.5,0,0,1,196.6,341.41Z"/><path class="cls-2" d="M190.71,324H179.14a2.5,2.5,0,0,1,0-5h11.58A2.5,2.5,0,1,1,190.71,324Z"/><path class="cls-2" d="M159.14,799.18a2.5,2.5,0,0,1-2.5-2.5V785.1a2.5,2.5,0,0,1,5,0v11.58A2.5,2.5,0,0,1,159.14,799.18Z"/><path class="cls-2" d="M176.6,805.06H165a2.5,2.5,0,1,1,0-5H176.6A2.5,2.5,0,1,1,176.6,805.06Z"/><path class="cls-2" d="M159.14,822.52a2.5,2.5,0,0,1-2.5-2.5V808.44a2.5,2.5,0,0,1,5,0V820A2.5,2.5,0,0,1,159.14,822.52Z"/><path class="cls-2" d="M153.25,805.06H141.68a2.5,2.5,0,0,1,0-5h11.58A2.5,2.5,0,1,1,153.25,805.06Z"/><circle class="cls-6" cx="219.32" cy="905.14" r="8.61"/><circle class="cls-7" cx="383.99" cy="1244.73" r="14.01"/></svg>